<?xml version="1.0" encoding="UTF-8"?>
<!DOCTYPE svg PUBLIC "-//W3C//DTD SVG 1.1//EN" "http://www.w3.org/Graphics/SVG/1.1/DTD/svg11.dtd">
<!-- Creator: CorelDRAW X8 -->
<svg xmlns="http://www.w3.org/2000/svg" xml:space="preserve" width="45mm" height="45mm" version="1.1" style="shape-rendering:geometricPrecision; text-rendering:geometricPrecision; image-rendering:optimizeQuality; fill-rule:evenodd; clip-rule:evenodd"
viewBox="0 0 4500 4500"
 xmlns:xlink="http://www.w3.org/1999/xlink">
 <defs>
  <style type="text/css">
   <![CDATA[
    .str0 {stroke:#2B2A29;stroke-width:7.62}
    .str1 {stroke:black;stroke-width:7.62}
    .fil0 {fill:none}
    .fil2 {fill:#FEFEFE}
    .fil1 {fill:#2B2A29}
   ]]>
  </style>
 </defs>
 <g id="Ebene_x0020_1">
  <metadata id="CorelCorpID_0Corel-Layer"/>
  <g id="_1451742035568">
   <path class="fil0 str0" d="M596 431c13,5 11,1 18,14 -28,6 -36,13 -45,33 12,-9 14,-13 23,-22 37,-36 40,-22 88,-34 -1,1 -3,2 -4,3l-18 28c-36,-5 -18,-3 -41,15 0,0 2,0 2,0 1,0 3,0 3,0 1,0 2,0 3,0 1,0 3,0 3,1l15 3c1,-1 3,1 4,1 -2,1 -4,2 -5,2l-5 2c0,0 -1,1 -2,1l-15 3c0,-1 -2,0 -3,0 0,12 0,13 1,30 -23,-8 -15,-3 -39,12 -32,19 1,-4 -15,15l-14 16c0,-1 -2,2 -3,3l22 6c12,6 12,0 13,17 -21,-7 -10,-13 -28,-14l-17 3c8,17 1,8 14,14 0,1 2,1 3,1 1,1 12,-1 14,-1 -13,19 -20,19 -21,20l-19 25c-33,21 -36,58 -36,59l7 5c15,3 18,-8 19,-10 1,-3 -3,-11 -3,-13l36 -7 -30 48c-1,0 -2,0 -3,1 -1,0 -3,0 -3,0l-20 21c0,1 1,3 1,3 0,1 4,-7 -1,9 1,-1 3,-2 4,-3l25 -10c10,0 3,-5 19,2l-21 24c-1,1 -1,2 -2,3l-11 11c8,16 20,30 36,37 13,-33 15,15 17,-27 0,-23 -5,-10 -10,-18 -1,-1 -2,-2 -3,-3l38 -22c0,0 0,2 0,2 4,15 -6,6 5,9 7,2 36,-2 39,12 3,17 24,-12 -6,10 1,8 4,1 -2,-4 -8,-6 12,-6 -28,-2l0 33c-1,1 -2,2 -3,2 -20,12 -9,9 -16,24l-12 -31c-32,15 -19,15 -22,21 0,1 -2,6 -3,8l-9 39c-1,1 -1,2 -2,3l-6 12c0,0 -1,3 -2,5 7,-4 11,12 12,14 0,0 0,2 0,3 0,1 -1,3 -1,4 -1,22 -12,18 4,34 4,4 -2,4 9,3 6,-1 7,18 7,-15 0,6 7,8 4,16 0,0 -1,1 -1,1 0,0 -2,1 -2,0 0,0 -1,0 -2,1 0,1 -1,3 -1,5 0,1 -1,3 -1,5l-3 14c-1,25 35,47 27,-6 5,12 16,30 29,32l-30 7c-11,2 9,7 -13,-1 -8,-3 -8,2 -17,-12 -8,-14 0,2 -6,-16l-2 -9c-7,-15 5,-6 -19,-17l-29 57c7,19 -4,-1 5,4l-8 21c-25,-5 -2,-3 -28,-2 -3,1 -2,0 -7,11l-9 24c-7,15 -16,26 -26,37 2,1 4,0 5,2l7 5c8,6 5,-16 6,10l-6 18c-8,34 10,-14 -2,7l-13 19c-3,11 0,3 -2,13 0,1 -1,3 -1,4 -3,22 -18,62 -33,86l-13 18c-6,7 -3,4 -8,9 -23,32 -15,29 -23,43 -8,12 -32,20 -37,22l-6 2c-38,12 -26,14 -30,35 22,-3 30,-11 41,-6 29,4 -5,1 23,-8 1,-1 3,-1 4,-2l25 6c-18,26 -39,35 -65,40l-20 4c-7,1 -6,0 -15,2 -35,4 -37,8 -58,20 -27,14 29,-6 -18,0 -22,3 -1,-7 -18,14l-4 -17c-5,3 -11,5 -11,6 -30,16 -15,21 -55,41 -12,5 -9,2 -10,34 12,-10 16,-22 44,-2l-13 24c3,3 3,7 13,6 20,-1 3,8 7,-6 0,-1 -1,-4 -1,-5l3 -19c12,-7 15,-2 31,-12l-9 -9c-6,-5 -10,-8 -14,-10l59 -18c-10,15 -10,26 -25,30 18,10 14,-4 12,24l-24 2 9 48c-13,-3 -3,-10 -16,-24l-24 27c0,1 -2,2 -2,3l-29 49c47,-15 26,8 25,-23 1,1 6,4 6,5 1,0 3,1 3,1l21 -13c28,-11 31,-17 45,-41l6 -15c0,-20 0,-4 -2,-4 26,0 3,-6 15,7l8 37c0,0 0,2 0,2l-14 27c-19,16 -28,-1 -31,25 0,1 0,5 -1,6l2 15c0,11 -7,10 -7,11 -3,5 -9,-13 -1,6 5,13 6,4 7,4 -16,14 -21,25 -27,47 1,-2 2,-6 3,-5l11 -15c1,-1 2,-3 3,-4 10,-12 1,-9 21,-19 2,0 3,-1 4,-1 24,-11 19,-20 31,-41l7 -34c40,-8 -9,17 15,-5 1,-1 3,-3 5,-4 0,-1 2,-2 3,-3l9 -4c2,0 4,-1 6,-1 1,14 -8,6 -3,15 0,0 -7,7 28,10 -17,20 -6,27 -33,25 7,15 7,13 10,17l7 8c-22,24 -19,6 -16,30l2 8c0,0 1,2 1,3 -7,2 13,11 -16,2 -5,-2 -6,0 -9,-7 -6,-14 7,-19 13,-33 -17,9 -17,14 -27,25 -11,11 -7,8 -4,25l-38 12c-1,1 -2,2 -3,2 -26,15 -33,-3 -57,-3 -16,8 -4,-21 -1,6l-13 19c-14,2 -1,-9 -13,4 -10,10 -4,-1 -4,13 0,1 1,3 1,4l2 12c1,10 0,19 1,32 21,2 18,1 43,9l-17 -33c1,0 1,-2 1,-2l0 -10c0,-1 -1,-2 -1,-3 80,-5 10,-3 14,49l29 9c17,0 -1,4 13,-13l7 12c1,0 2,2 3,2 13,9 2,-4 29,2l27 -7c11,-11 -2,-3 8,-8 -1,25 -17,33 -17,32 0,-1 -2,2 -4,3 1,0 3,1 4,1l9 2c4,1 8,1 11,2l27 0c-4,-8 -6,-19 -6,-21l2 -7c9,-30 24,-34 24,-34l9 -24c4,-20 0,-11 -3,-13 19,-3 20,5 32,1l9 -7c10,-8 -28,-16 26,-11 -1,-2 -4,-7 -5,-7 -3,-12 -7,8 -1,-10 7,-23 -2,1 6,-5 2,-1 13,-3 22,-23l2 -10c-1,-13 4,-14 9,-19l34 -19c-1,-23 4,-11 -13,-23 59,-7 20,-19 52,-30 5,7 9,-1 0,25 -1,-1 -21,-3 2,-2 21,1 -1,-2 11,2l-11 18c0,0 0,2 0,2 1,1 7,3 8,4 -29,14 -4,13 -35,6 2,2 3,2 4,5l3 19c-12,32 -28,8 -35,3 0,2 -2,2 -2,5l-5 9c-2,4 -2,2 -5,12l21 -6c-17,7 -22,-3 5,26 -50,-10 -49,-7 -11,8 -2,1 -5,0 -6,3 -10,23 0,-2 -11,6 -8,6 -8,-2 -14,13 -6,16 -12,0 4,10 16,12 6,4 11,1 -24,13 -20,32 -33,46 0,1 -1,1 -2,2l-6 5c-1,0 -2,2 -3,2 -1,1 -2,2 -3,3 -44,46 -32,27 -30,63 25,27 3,12 32,23l-4 -12c10,-8 -19,-19 22,-5l-13 -9c-11,-7 0,-2 -10,-6 3,-32 4,-38 33,-52 0,-1 2,-1 2,-1 1,-1 3,-1 3,-2 1,0 3,-1 4,-1l20 -18c8,-5 22,-8 31,-9l-22 -15c-2,-1 -3,-2 -5,-3l30 -9c1,0 2,-1 3,-1 1,0 5,0 6,0l17 4c-1,1 -3,1 -3,3l-45 42c-5,4 1,4 -13,10 1,1 3,0 4,1l16 10c1,0 1,1 2,2 -18,18 -5,15 -36,10l9 5c12,31 4,-14 0,9 -9,40 -17,10 19,80 0,1 1,3 2,5 -7,18 4,6 -11,16 0,0 11,-6 9,17 -1,20 -4,-2 -2,8l43 3c-12,-41 1,-7 -6,-11l56 15c-19,9 -4,6 -15,19l-17 17c-1,1 -2,2 -2,3 -1,1 -2,3 -2,3l41 11c1,28 7,-4 3,37 -15,-4 -19,-17 -25,-17l15 22c-32,10 -16,-9 -18,19 -3,28 3,-16 3,14l-17 7c-3,1 -4,1 -6,2 -2,0 -12,2 -13,2l5 -33 -19 -9c-1,-1 -9,-6 -11,-7 1,24 5,35 12,57 10,29 -4,20 21,42l-2 -14c-2,-10 -4,-11 2,-21l61 -10c1,0 3,-1 3,-1 1,0 3,-1 4,-1 1,0 2,-1 4,-1 1,43 -21,32 -37,51l12 11c1,0 2,0 2,0l10 -10c30,20 -24,-14 9,10 15,11 -17,-1 9,4 6,1 9,0 12,0l17 6c-2,33 14,41 1,76 -5,13 4,33 -4,43 -4,5 -7,12 -15,-1l-6 -20c0,-1 1,-2 1,-3l7 -13c-22,5 -2,4 -25,1 8,23 13,44 11,66 -2,21 3,11 -10,20 -1,-1 -3,-5 -4,-4l-12 -22c-10,0 -17,1 -22,9 -1,-1 -2,-5 -2,-3 -1,1 -4,-12 -8,-5 -10,14 0,11 -2,27 -4,29 1,-13 -3,13l-17 29c-1,0 -3,0 -5,0 -1,0 -3,-1 -4,-1 -2,-1 -17,-8 -20,-9l-4 -1 26 0 -8 26c-2,12 -9,22 -14,46 34,-7 18,6 28,-15 2,11 -22,-9 3,7 8,5 5,3 18,5 -1,1 -2,1 -2,3 -6,28 15,-20 -8,10 -1,2 -2,4 -3,5 -1,1 -3,3 -4,5l2 0c-18,-2 17,-11 -12,0 -1,0 -3,1 -3,2l-11 9c20,17 7,-5 18,12 6,9 10,12 -4,12l1 -3c-9,-10 7,-3 -14,-11l-12 19c-18,44 0,35 2,56 -3,-2 4,-1 -6,-7l-12 -3 -2 23c-1,13 4,11 -8,14l28 11c1,1 2,1 3,2l26 31c31,-19 12,-24 11,-26 24,2 11,-1 22,15 -4,-21 -2,-6 -7,-15l-4 -7c-10,-15 1,7 -8,-13l35 18 11 -27c-11,26 -10,18 -14,43 34,-16 -2,1 13,-4 1,0 3,-1 4,-1l30 -3c10,8 -25,8 17,6 31,-1 3,-14 33,-57l2 -3c0,-1 -2,-3 -2,-5 24,0 27,-17 27,-17 12,9 7,-2 7,12 0,0 -1,2 -1,2 -6,22 -12,-14 -8,27l-16 -2c0,0 -8,7 -9,8 13,12 12,3 17,16 8,18 0,9 17,15 1,0 5,2 6,2 1,0 3,1 3,2 1,0 5,3 7,3 1,-1 2,-4 3,-3 0,1 2,-3 3,-4l5 -8c1,-2 2,-3 3,-5l13 -24c9,15 4,11 26,12 -10,3 -7,-1 -12,8 -9,15 -6,7 3,13 29,-7 21,-37 68,3l20 14c-7,21 -5,1 3,4 15,6 -3,5 25,1 0,0 0,-3 0,-2l2 -12c0,0 0,-2 0,-2l11 -18c0,-1 1,-3 1,-4 0,-1 0,-2 1,-3l1 -19c0,0 30,0 3,28 -9,10 3,2 -14,6 40,22 -34,-9 17,5l32 12c37,24 39,7 53,21 -8,15 1,7 -9,6 1,2 1,2 2,5l6 9c1,1 3,3 4,5 -2,0 -15,3 -16,3 -20,2 -7,0 -8,-1 1,1 2,3 3,4l21 20c0,0 3,17 24,0 0,0 2,-2 2,-3 -6,-15 25,16 -19,-14 -2,-1 -4,-2 -5,-3 18,-8 -12,-1 13,-2 41,-2 -21,9 13,1 2,-8 -3,-50 -11,-58l-29 8c27,-1 4,-1 16,-8 -9,-8 -14,-7 -22,-25 17,-5 9,-7 22,-3l22 15c13,3 17,-7 15,-13 -6,-17 -5,6 -18,-18 11,2 12,3 20,6 1,0 3,1 4,1l20 15c0,1 2,2 3,3 10,9 5,1 14,13 0,-2 14,-3 -5,1l-11 2c0,0 -2,0 -2,0l-20 18c0,0 -1,2 -2,2 -1,3 -13,5 5,9l43 5c-6,-31 -1,-21 14,-51l6 -16c4,-5 -1,-5 9,-4l6 3c18,5 12,-1 33,10 -14,11 -3,2 -20,8 -19,6 -9,2 -20,11 1,1 2,1 2,3l20 13c-17,36 0,-5 -23,23 -8,10 -4,12 3,26l-34 -13c11,27 8,19 -18,25l12 8c27,22 3,13 25,31l15 8c1,0 2,1 4,2 21,10 7,8 31,11 3,25 2,4 -8,13 13,12 19,18 36,23 26,8 14,-3 29,7 12,7 25,16 41,22 12,5 35,9 41,16 -6,-33 -4,-6 8,-15 24,12 15,8 44,9l-27 -29c-6,6 -13,13 -22,11 0,0 -11,-12 14,-23 17,-7 16,-2 52,-7l9 0c3,1 5,-11 2,2 8,-8 15,12 8,-26 -6,5 -10,0 -12,-7l-1 -9c1,0 13,4 15,4 9,1 19,1 28,1 -13,-28 -2,17 -11,-22 -20,4 -7,2 -19,6l-38 7c-8,3 -8,1 -14,16 -6,15 6,6 -9,24 -18,-7 -20,-45 3,-64 12,-9 11,-1 12,-20 1,1 3,1 4,3 3,9 24,9 32,10 -33,-42 -16,-20 -16,-26 0,-17 12,14 1,-8 -5,-9 -16,-9 -22,-10l-18 -7c-1,-1 -6,-4 -7,-5 -5,13 -6,24 -22,22 19,12 12,11 37,16 -19,9 -27,6 -32,2 -43,-31 0,10 -36,-10 9,-22 -14,24 14,-14 28,-38 4,-20 3,-24 -25,-1 -17,20 -19,-7l-15 19c-9,-16 9,-33 12,-46 3,-12 -6,-5 5,-11l16 -5c12,-5 6,-20 24,0l9 12c11,5 -4,6 23,-1 -3,18 -4,-4 2,14 4,14 4,15 15,14 1,0 15,-5 16,-6 4,28 3,29 29,22 5,-2 0,-9 8,0l-15 38c-1,1 -2,2 -4,2 -1,1 -3,2 -4,2 -1,1 -3,1 -4,2 12,13 22,36 42,23 15,-10 7,-2 6,-14 -2,1 -7,9 -17,2 19,-15 6,-9 43,-19 -29,-2 -17,-9 -23,-19l25 0c9,1 -1,11 11,0 5,-4 4,-4 7,-11l-12 -8c-1,-1 -2,-2 -4,-2l5 -16c14,-3 7,-3 19,-10l15 -3c0,0 2,-1 2,-1l24 0 -6 -31c-30,-5 -7,-4 -22,-6 -31,-4 -42,7 -44,-31l-44 14 14 8c36,11 23,3 31,22 -8,4 -7,5 -21,-1 -13,-6 7,-7 -24,-18 -39,-13 -18,18 -44,-13l20 -14c0,-1 1,-2 1,-2 10,-13 3,-10 21,-14 1,0 2,-1 4,-1 -11,-4 -5,0 -11,-11l-6 -20c-16,5 -9,3 -20,10 1,-22 -13,-21 -18,-39 16,29 -21,-7 10,6l16 6c11,6 3,1 13,9 14,11 45,38 39,-5 -3,-21 -6,-11 -28,-16 4,-43 4,-8 36,-20l-74 -27c-6,-21 11,4 -8,-21 8,-9 14,-13 15,-26l-9 -34c-4,-24 -7,-62 17,-72l16 -6c1,0 2,-1 2,-1 1,0 2,0 3,0l7 0c33,-3 19,-3 22,-12 0,0 0,-2 0,-3 60,2 19,11 59,9l-7 16c22,-11 23,-6 47,3 -3,-31 -3,-6 3,-10 0,-1 1,-1 1,-2 12,-5 15,4 35,4 -9,-6 -1,-5 0,13 26,-4 47,-17 39,6l22 0c12,-14 36,-7 60,-6 5,-9 9,-16 11,-27 20,-1 26,-3 46,-5 12,-2 9,1 20,-4 17,-9 9,-1 17,-20 -174,44 -276,13 -281,13 -1,0 -2,0 -3,1l-14 9 -5 -12c0,0 -1,-2 -1,-2 -10,-11 -78,-19 -96,-25l-26 -7c-33,-4 -26,-13 -60,-20 -8,-2 -4,3 -8,-8 0,-1 -1,-3 -1,-3l-1 -9c-32,5 -24,5 -42,-13 1,1 -5,9 5,1 7,-6 4,2 10,-13l-29 5c-3,-12 -9,-21 -21,-24 -1,0 -3,0 -3,0 -12,-1 -7,-11 -14,6 -3,4 -13,-15 0,11 5,11 10,10 19,14 2,0 4,1 5,1 -2,0 -24,1 -25,1 -3,1 -9,2 -11,3 -20,9 5,-13 -16,11 30,-6 40,-14 27,18 -10,26 -10,8 -25,16 -2,18 7,3 6,24 -2,23 -6,4 -8,3 -9,-12 -3,-9 -2,-13 -4,15 -6,17 -11,28l-34 -30c-1,0 -2,-1 -4,-1 19,-6 28,-4 51,0 0,-2 -3,-11 -4,-12 -3,-14 0,4 -2,-10 -1,-9 -5,5 1,-15l-17 10c10,-60 -11,4 -18,-32 -2,1 -4,1 -5,4l-20 18c-12,18 -12,-1 1,28l-50 21c-19,-3 -23,-6 -40,-12l15 24c10,11 1,7 18,12l5 -22c40,-3 8,-2 21,8 -2,27 -3,-1 -8,12l-1 8c0,0 0,2 0,2 0,1 -1,2 -1,2 -14,23 -6,5 -15,2 -22,-5 0,-4 -31,-5l10 31c3,7 3,0 4,15 -12,-2 -11,-3 -19,-6l-13 -7c-1,-1 -2,-2 -4,-2l-6 38c-1,1 -1,3 -2,4 0,1 -1,3 -2,4l-20 -39c0,-1 0,-3 -1,-4 -1,1 -3,1 -4,3 -1,2 -3,2 -4,2 -1,0 -3,2 -3,2 -1,1 -3,1 -4,2 0,0 -2,1 -3,1l-16 18 -3 -23c0,-1 2,-2 3,-2 6,-5 3,4 6,-13l-1 -12c-1,7 -13,-1 6,1 14,1 -9,-5 7,14 11,12 4,7 22,12 32,-29 -8,-10 28,-36 1,-1 3,-2 5,-4 -25,-6 -15,1 -27,-15l17 -16 -21 -39c-38,10 5,16 -25,9 -3,-11 -1,6 4,-8 0,0 1,-2 1,-2 0,-1 0,-3 1,-3 0,-1 0,-2 1,-3l8 -21c0,0 0,-2 0,-3 0,0 0,-3 0,-3 0,-1 0,-2 -1,-3l11 7c7,8 -2,12 -8,20l24 18c1,0 2,2 4,3 13,-12 14,-22 15,-44 -27,-23 -27,20 -31,-16 -2,-16 8,-14 21,-27l23 19c10,7 2,2 10,7l27 -18 -6 -14c0,-1 -1,-3 -1,-4 -9,-21 1,-6 -10,-15l-21 -25 -22 19c-1,-12 2,-6 7,-31 -42,1 -15,1 -19,-11 -9,3 4,8 -16,6 1,-23 14,-15 6,-44 13,5 22,8 36,11l-12 -14c-16,-10 11,-9 -16,-3 13,-14 -2,-9 19,-13 -8,-11 -9,-5 -11,-20 0,-1 0,-2 1,-3 36,-2 -11,18 27,1 -5,17 -7,15 -9,27l31 -13c2,15 8,20 20,26 0,2 -6,9 -6,10l1 13c0,1 1,3 2,5l21 -22c1,-1 2,-2 3,-3 0,-1 3,-5 5,-6 8,7 10,2 8,16 -1,18 0,-1 -14,21 18,-2 8,1 15,2l45 32c9,10 9,10 22,8l-37 -57c-1,0 -2,-2 -3,-3l-56 -58c0,0 -6,-10 -6,-10 -11,-17 -19,-23 -18,-46l-14 10c-1,0 -2,0 -3,0 -10,-1 0,-1 -5,-4l-14 -4c-20,-9 4,20 -7,-6 -6,-12 -12,-13 12,-3l3 -21c6,-29 -3,-45 -9,-75 -4,-15 -5,-17 -7,-32l-10 -70c-5,-24 -1,-38 -2,-62 0,-1 -1,-13 -1,-16l1 -34c0,-2 1,-8 0,-25 -1,-34 7,-63 12,-95 2,-10 7,-38 18,-45 22,-15 3,-1 5,-1 16,-1 2,0 3,2l-5 -11c-8,-22 6,-19 -12,-22 15,-20 15,-6 20,-33l9 -30c3,-22 31,-43 44,-74 1,-1 1,-2 2,-3 14,-33 24,-36 28,-52 0,0 4,-12 4,-13 1,-2 4,-9 5,-10 0,-1 1,-2 1,-3l131 -136c1,0 4,-4 6,-5 1,-1 5,-4 6,-5l16 -15c1,-2 -11,5 4,-16 0,0 12,-1 3,16 1,-1 3,-3 4,-2l64 -20 -3 -27c3,4 -10,14 17,10 10,-2 13,-9 20,-19l5 27c17,-8 34,-13 50,-17 11,-1 63,-32 72,-45 -11,4 -45,7 -59,1 0,0 -2,-1 -2,-1l-9 -5c-11,-2 -10,14 -14,5 0,-1 -1,2 -2,3 -3,-25 -7,-12 -19,-33l33 -11c1,2 2,7 3,8l10 23 6 -19c5,-11 -4,-16 30,-18 39,-2 32,3 28,-22 1,1 35,2 11,23 12,-19 12,-8 26,-1 -8,-32 -3,-21 4,-23 -34,11 -20,1 -27,-1 -20,-6 -20,0 -39,-1 -42,-3 -27,3 -61,5l-31 -3c-30,-12 4,28 -10,-5 -1,-3 -4,-2 -5,-4 -11,23 -19,16 -17,22 -46,-6 34,10 -11,-8l-37 5c-1,-2 -5,2 -7,2 -5,-19 3,12 -2,-15 0,-2 -2,-6 -2,-9 0,-2 -1,-3 -1,-4 -30,18 13,-8 -8,7 -1,1 -2,2 -3,3 -1,1 -2,2 -4,2l-21 3c-2,0 -12,-3 -14,-3 5,19 4,14 0,13 -34,-12 -34,8 -60,21l-1 -18c-11,17 17,1 -11,7 -25,5 -9,-12 -40,-3 -1,-28 4,-1 21,-12 15,-9 4,-5 9,-14l12 -16c0,-4 2,-4 4,-6 -10,20 -13,14 -8,25l9 6c11,3 21,-1 28,-6 2,-1 4,-1 5,-4 1,-3 3,-3 4,-4 -25,1 -17,0 -44,-6 13,-4 26,-5 37,-14l19 -22c2,-1 3,-2 5,-2 1,-1 2,-2 4,-3l8 -4c35,-20 35,-23 49,12 -19,10 -17,6 -38,0 -1,12 -3,24 -4,29 0,1 -5,15 -5,15 -1,2 -2,6 -2,6 -1,-1 -2,3 -2,5 51,-10 11,4 30,-20 5,-6 -7,-8 21,-13l6 -20c1,0 3,0 4,-1 17,-4 7,2 17,-20 7,16 -4,3 8,9 32,16 -10,8 10,0 7,-3 0,-4 15,-12l-18 -15c-16,-7 -2,-2 -20,-1l9 -15c6,-13 -4,21 4,-8 4,-16 -1,-9 -6,-26 19,8 21,5 20,27 2,-2 3,-3 4,-4l8 -7c2,0 3,-1 4,-2l17 -9 7 20c6,12 0,4 10,13l44 -13c15,-6 15,-1 19,-21l34 10c2,0 16,6 18,7 5,-21 7,-18 24,-26l13 -7c-21,-1 -26,-3 -29,-5l-14 -9c-15,-10 9,-4 -15,-9 -5,15 -2,-6 3,10 0,2 3,9 3,11 -16,-13 -30,0 -50,-4 -1,-2 -2,-4 -2,-5 0,-1 -1,-3 -1,-5 0,-1 0,-3 0,-4 2,-11 9,-16 10,-20l-6 -17c32,-9 19,-11 32,-33 -9,15 -9,4 14,13 0,-2 2,-10 2,-12 0,-1 1,-3 1,-4l-4 -2c24,-10 9,-10 31,-6l1 -14c1,-9 5,-6 -1,-17 -13,4 -11,6 -18,9l-93 38c-18,-17 0,11 -5,-10 -5,-23 4,2 7,-26 -2,-1 -8,-3 -9,-3l-6 -2c-10,-2 1,4 -15,-3 5,-22 -2,-1 11,-15 13,-14 9,-3 23,6l-6 -9c-1,-1 -2,-3 -3,-4l-13 -37c-8,4 -3,4 0,7 20,-4 2,19 19,-19 1,1 3,3 5,4 25,13 6,13 13,5 10,-11 7,14 -2,-11 -1,-1 -6,-12 -7,-13 28,4 5,1 22,6 20,7 -3,19 8,3 0,0 2,1 3,2 -1,-14 -7,-14 11,-25 59,-37 -13,24 25,-14 -19,-1 -36,0 -51,-19l-20 21c0,0 -1,2 -2,3l-8 -38 22 6c0,0 0,0 1,0 -20,-1 -34,-3 -45,-11 2,-1 5,-2 6,-3 2,0 4,-1 6,-2l44 -28c16,0 1,16 11,-6 -41,0 -5,8 -34,-22 -29,27 -37,3 -33,38 -20,-11 -4,-1 -12,-10 -1,-1 -2,-2 -2,-3l-2 -6c-13,24 -15,6 -28,42 -15,-2 -16,-14 -22,-17 -4,4 -6,6 -11,10 -11,9 14,-9 -11,8 -43,30 -59,15 -85,19 3,-4 7,-7 12,-10 1,0 3,-1 4,-2l66 -34c0,-2 2,-1 3,-2 1,6 -9,6 7,11 7,-26 15,-18 26,-37 -14,7 -33,13 -46,19l-259 122c-14,4 -5,2 -26,1 23,-34 47,-28 55,-39 0,0 18,-2 -7,-7l-14 1c-2,0 -4,0 -6,1 18,26 14,-8 2,12 -8,12 -63,4 -79,4 1,-3 -8,-10 26,8 35,19 -30,2 18,9 -9,10 15,27 -36,10 9,25 12,12 -2,16 -1,-19 2,-3 -8,-13 -12,-10 -28,-16 -44,-14 9,-11 6,-3 10,-20l-15 6c0,0 -2,0 -3,0l-33 10c1,1 3,2 4,3l8 10c0,1 1,2 1,3 1,29 1,5 -9,14l0 -21c-37,3 -12,-3 -23,8 -11,12 0,0 -4,15 -4,-17 -2,-9 -13,-22 21,-5 12,5 26,-16l-46 0 8 -57c-14,-1 -10,-1 -22,-7l-16 -10c-1,-3 -3,-2 -4,-3 0,-32 -4,-6 17,-17 -10,-13 -22,-21 -45,-23l-9 -1c-34,0 -33,-11 -46,-9 -2,0 -4,1 -5,1l-11 4c11,21 -8,15 25,16 -26,-1 -47,13 -60,31z"/>
   <path class="fil0 str1" d="M1420 986c-12,20 -29,22 -62,34 -20,7 -47,14 -70,23 -10,3 -2,0 -11,4l-84 55c-20,18 -25,17 -47,45l-26 36c-17,18 -13,6 -34,36l-16 27c-1,2 -3,6 -4,8 -33,60 -33,42 -12,59 -35,9 -30,47 -59,84 -9,-12 -13,-15 2,-38l9 -14c9,-13 19,-28 19,-45l-26 57c-1,1 -2,3 -2,4 -27,55 -23,46 -8,55 -21,54 -40,166 -39,221 2,36 13,76 17,114 4,51 16,113 33,159 38,108 46,88 111,163 6,7 1,2 7,8 39,40 53,45 86,73 -10,-15 -15,-18 -17,-39 25,17 21,30 49,46l29 17c13,7 2,0 14,7 4,2 12,8 13,8 50,34 60,36 123,52 96,24 213,19 314,-1 1,-1 4,-3 5,-2l70 -13c40,-19 110,-72 139,-58 -9,9 -17,13 -33,23 -11,6 -22,10 -32,17 68,-30 53,-25 98,-55l67 -67 8 11c13,40 5,-5 3,15 -1,2 -10,12 -11,13 0,-1 1,-2 1,-2l22 -24c32,-31 30,-34 55,-67 23,-28 34,-20 5,-18l0 -44c2,0 9,-2 10,-2l9 -9c0,-1 0,-2 0,-3l24 -43c1,-1 2,-2 3,-3 9,34 -3,11 2,55 1,1 1,3 1,4 0,0 0,7 0,7 -10,-6 -3,0 1,-6 -4,-38 10,-23 14,-69 1,-18 7,-16 20,-54l16 -44c1,-1 1,-3 2,-4l19 -97 -19 -192c28,12 24,148 41,172 6,-46 2,-42 1,-45 -7,-31 -2,-33 -13,-70 -7,-21 -25,-112 -26,-132 -5,18 28,0 -11,11 -6,-14 -10,-24 -11,-42l-22 -75c-12,16 -11,12 -18,34 -14,-14 -22,20 -5,-31 11,-34 16,-18 -1,-44l-22 -30c-14,24 -12,32 -39,35 6,-31 68,-87 98,-117 -3,-12 -13,-21 -23,-27l-19 -6c1,-32 -10,-37 -24,-53l-57 -62c-1,-2 -2,-2 -3,-3 -19,43 -49,50 -64,70 -1,-1 -3,-2 -4,-2l-12 -12c9,18 5,7 11,24 -7,5 -12,8 -17,14 -9,-13 -9,-2 0,-18l-25 13c12,-40 7,-21 -45,-69 -36,-32 -2,0 -56,-36 -19,-13 -47,-15 -51,-15l-64 -19c-20,-6 -42,-9 -65,-4 -50,10 -91,13 -141,23 13,-17 19,-17 30,-20 15,-4 64,-1 87,-13 -1,-1 -3,-1 -4,-1 -1,0 -3,-1 -4,-1l-94 -5c-15,-1 -10,-1 -27,4 -26,7 -82,29 -109,25z"/>
   <path class="fil1" d="M2933 2580c-12,11 -6,3 -12,20l9 19 13 0c-2,2 -7,6 -8,8l-4 5c-11,17 14,-7 -23,18l-16 14c-1,1 -1,2 -2,2l-2 5c-1,1 -35,14 -44,25l-10 21c-1,-1 -2,4 -2,7 38,-6 9,2 29,-10l34 -23c-30,30 -24,5 -30,44 30,-8 26,-6 51,-26l21 -17c4,7 2,-5 1,9 -1,19 -10,22 -22,28 -29,13 -72,33 -101,33 0,2 -1,4 -1,5 -11,55 7,44 -8,56l-3 16c0,1 1,2 1,3l-4 74c14,-13 6,-1 14,-18 7,-14 2,-4 4,-15 1,-3 1,-22 2,-29 17,38 16,-18 12,47 -2,31 -10,61 -6,79 14,-8 9,2 22,-44l3 -9c0,-1 0,-3 1,-4l8 -17c1,0 2,-1 3,-3 0,-1 1,-1 2,-2l30 30c0,1 0,2 1,2l-3 17c-2,0 -4,1 -5,1 -1,0 -3,1 -4,1l-28 13c0,0 -3,2 -3,1l-12 28c0,0 -8,21 -8,22 -1,-8 0,-15 0,-21 0,-1 0,-6 0,-7 0,-1 -1,-2 -1,-3 0,-2 0,-2 0,-3 -6,5 -3,0 -8,9l-8 37c-10,83 -7,33 -21,92 -2,9 -3,17 -4,23 -3,14 -3,11 -4,12l-12 -23c1,-26 17,-55 7,-78 -2,4 -2,3 -5,11 -9,26 2,18 -8,58 -16,66 -11,110 -32,175 -5,15 -6,25 -16,36l-6 -46c-13,-7 -8,-12 -15,-24 -13,21 -16,44 -27,67 -19,16 -51,-8 -51,-8 -8,17 1,0 -6,11l-5 6c-1,-1 -3,-4 -3,-6l-2 -26c-2,2 -4,3 -6,4 -1,2 -3,3 -5,4 -1,2 -3,2 -4,4 -2,1 -6,5 -7,6 -16,18 -18,141 -17,148 33,-12 16,12 21,-29 74,135 65,68 41,171 -47,-37 -46,-92 -46,-93 0,0 -1,-1 -1,-2l-15 -16c-13,14 -3,8 -13,10 10,8 6,6 10,12 17,22 9,22 5,41 5,2 -1,-4 5,-1 10,4 21,25 30,36 9,10 1,0 6,6 11,14 4,2 8,13 1,5 0,18 0,29l-4 0c0,0 -2,0 -2,0l-17 5 105 160c4,7 5,8 8,13l6 10c1,1 2,2 3,3l19 19c1,-1 3,2 4,3 -26,-4 -22,-6 -43,-14 -30,-12 -35,-13 -56,-42l-24 -32c-16,-17 -15,-8 -20,-6 27,-72 9,-67 7,-75 0,-4 -2,-4 -1,-5l-14 46c-38,-17 6,-13 -27,-26 -1,1 -3,2 -4,3l-18 9c11,32 11,2 22,44 -36,-20 -21,-21 -35,-10 -26,20 16,3 -16,21 12,20 17,15 32,23 0,0 -17,-31 -37,8 0,-2 -1,-4 -1,-4 -1,-1 -2,-3 -2,-4l-7 -9c6,33 8,8 -4,33 0,0 -6,8 -7,10l-17 51c-2,-1 -3,-3 -4,-4 -1,-1 -3,-3 -4,-4 -1,-1 -2,-2 -3,-3l-6 -9c0,1 0,2 0,2l7 18c-8,7 6,18 -21,5 9,12 -3,24 -5,26 -24,32 -10,57 -63,60 6,-25 0,-15 15,-34 -9,1 -18,0 -25,7 -19,14 -9,-5 -11,25 -2,30 11,-9 -2,21 -7,17 -4,-8 -11,19 16,14 19,14 34,6 39,-11 4,-7 35,8l7 3c3,22 9,7 -15,14 25,0 31,-11 35,23 0,2 2,1 -2,7 25,-8 22,7 17,-22 12,-15 -1,-4 19,-11 13,-7 8,7 19,-22 -54,-37 -24,-34 -47,-35 5,28 21,10 20,50 -32,-9 11,14 -11,-5l-23 -21c0,-13 -1,-17 3,-30 6,-16 5,-7 16,-26 7,-13 18,-31 16,-46 0,-1 -1,-2 -1,-3 21,16 5,11 20,36 1,0 2,1 3,2 8,14 6,5 10,39l16 -12c1,-1 2,-3 3,-4l6 -20c5,-11 13,-16 25,-13l-4 -28c5,-30 6,-19 20,-26 10,17 3,11 10,31l10 19c0,1 1,2 2,3 1,1 2,3 3,3l67 86c20,16 26,13 42,43l4 7c13,25 15,17 31,40 0,1 1,2 2,3l9 13c1,1 3,5 4,6l13 23c8,13 10,14 21,17l33 -19c4,-2 6,-4 12,-9 8,-6 8,-5 18,-14l-141 -158c-5,-14 -4,2 -21,-15l-28 -32c-26,-28 16,29 -8,-15l-61 -89c2,2 14,4 21,7 15,5 19,12 24,14l14 2c17,4 37,24 46,34l16 27c14,23 7,20 21,24 -9,13 -12,13 -15,30 25,-13 24,-4 36,13 13,20 5,-4 29,42l22 34c1,1 2,2 3,3l16 28c1,1 1,3 2,4 1,1 3,5 4,6l17 27c7,9 7,8 9,9l17 -6 -29 -46c-24,-36 -92,-116 -99,-142 18,9 9,4 23,18 6,6 11,12 18,20l46 48c1,0 2,2 3,2l6 5c29,26 38,47 70,55 -5,-8 -4,-12 3,-16 -9,-32 -23,-26 -39,-50l-13 -21c52,13 35,74 166,80l2 -24c21,12 42,20 63,33l-27 14c9,-1 14,-3 24,-6 13,-4 4,-1 13,-5 1,0 6,-2 7,-3l7 -2c11,-1 10,4 25,-3 15,-7 -5,-6 26,-12 -12,-14 -24,-15 -24,-15 -18,-13 -12,-26 -39,-56 -11,-12 -4,-2 -12,-13 20,4 36,16 60,26 25,9 48,13 70,23l126 56c-20,11 -65,12 -97,28l-8 5c-1,0 -2,1 -3,2 45,2 107,-24 131,-21 3,1 34,11 44,13 -10,17 8,1 -19,18 -5,3 -15,8 -25,13l-53 34c59,28 85,-32 201,-14 -9,16 2,1 -8,10 -3,2 -11,6 -12,6 -33,11 -27,12 -54,16 -10,2 -26,4 -22,18 -1,-1 1,18 43,1 64,-26 16,-5 68,-21 20,-7 57,6 77,14 -7,16 0,10 -22,18l-159 60c-12,7 -12,18 -7,28 5,1 62,-1 79,-1l-113 45c-9,3 -4,-1 -11,4 -14,8 -13,-1 -3,11 0,32 -6,47 17,41 1,0 3,-1 3,-1l165 -32c45,-8 27,11 50,-10 -2,-33 37,-6 50,-31 -9,-15 6,-13 -26,-12 -1,0 -13,3 -15,3 -1,1 -3,1 -4,1l-176 30c0,0 -3,5 -18,-5 34,-9 81,-24 115,-36 15,-6 30,-4 56,-8 4,0 10,-1 12,-2 31,-4 27,4 51,-3l-8 -12c-20,-16 -39,0 -111,0l-71 0c14,-15 49,-24 79,-39 7,-3 22,-12 28,-15l12 -5c63,-27 43,-20 110,10l-9 -9c-22,-17 -23,-8 -38,-27l39 -12c-16,-11 -23,-4 -39,2 -23,8 -48,4 -60,-15 36,-9 48,-10 87,-15 -4,-11 1,-12 -4,-6 13,1 9,2 29,4l11 -39c-14,-5 -4,1 -13,-7l-12 -12c-17,-12 -150,12 -179,19l-29 6c-12,-1 -21,-9 -27,-17 13,-4 19,-8 32,-13 14,-7 23,-7 31,-19 -1,0 -3,-1 -3,0 -1,1 -3,0 -4,0 0,0 -2,0 -3,0 -46,6 -67,44 -117,6 15,-11 20,-3 42,-8l165 -42c10,-3 10,-4 12,-5 52,-23 36,-1 75,-20 0,0 9,-5 11,-5l45 -25c-27,3 -38,10 -59,15 -18,5 -38,8 -54,13 -17,5 -38,13 -45,14 -42,6 -94,24 -135,28 -47,4 -28,16 -82,11 8,-8 38,-23 49,-27l48 -20c36,-16 78,-26 115,-38 1,-1 3,-1 4,-2 54,-20 70,-30 141,-53 18,-6 75,-18 85,-33 14,-23 -18,-28 -38,-29 8,35 -1,11 16,32 -28,-5 -41,7 -65,18l-142 51c-8,3 -8,2 -18,5 -1,0 -3,1 -4,1 -2,1 -3,1 -5,2 0,0 -11,4 -12,4l-35 13c-28,10 -62,16 -84,32l-52 25c-14,7 -26,14 -42,11l-29 -9c-23,-8 -49,-20 -68,-32 18,-7 37,1 41,-22 4,-24 -15,-30 -25,-43 17,-13 56,-11 79,-14l92 -14c35,-5 17,0 27,-11l-51 -2c-21,2 -40,7 -60,3 -1,0 -3,0 -5,-1 14,-29 121,-62 160,-79l21 -10c1,0 2,-1 3,-1 1,-1 2,-1 3,-2l35 -12c14,-8 19,-6 27,-22 -20,-47 -203,-6 -237,-2l-14 -28c-1,20 -3,28 -19,38 -1,1 -3,2 -4,2 1,1 3,0 4,2 0,1 3,1 4,1 20,6 20,-4 46,-10 21,-5 54,-3 69,-5 34,-5 94,-15 125,4 1,1 6,4 7,5 -78,31 -45,27 -150,61l-42 22c-18,8 -28,14 -41,-2 -8,32 -12,23 -36,32 -17,7 -17,8 -30,14 -61,29 -86,-59 -140,-74 12,19 0,2 18,16 42,35 69,79 87,95 19,15 33,20 34,46 -30,-2 -57,-5 -86,-15l-166 -118c-26,-28 -63,-49 -89,-82l-8 -11c0,0 -1,-2 -1,-2l-7 -7c-13,-4 -10,-7 -22,-18 -19,-18 -16,-13 -31,-34 -3,-4 -4,-6 -8,-10 -5,-6 -4,-4 -8,-8l-88 -83c-20,-18 -39,-54 -62,-78 8,-15 13,-28 13,-48 11,-5 8,0 27,-2 1,-18 5,-27 7,-45 21,27 12,25 24,37 7,8 3,2 12,10l40 48c7,9 6,14 14,25 9,11 11,10 22,21l43 46c5,6 1,2 8,9 2,2 9,6 13,9l86 84c1,1 2,2 3,3 0,0 10,9 12,10 1,1 2,2 3,3l12 10c1,1 3,2 3,2 14,11 25,32 40,39 25,7 -1,-14 39,9 8,4 12,7 23,11 45,15 31,-24 12,-46 -3,-4 -6,-7 -8,-9l-5 -6c-24,-30 -58,-82 -91,-101 5,-27 3,-11 12,-29 -22,35 -17,-8 -31,5 -23,20 23,-14 -4,29 24,-10 35,11 48,25 1,1 8,10 10,12l29 37c18,22 48,49 47,78 -35,-5 -70,-30 -93,-54l-62 -60c-9,-11 -1,-5 -11,-12 -11,-6 -6,3 -24,-19l-12 -15c-9,-10 -4,-4 -14,-13l-53 -53c-30,-36 -12,-15 -34,-30l-16 -28c-1,-1 -9,-8 -10,-9l-11 -16c0,-1 -1,-2 -2,-3l-20 -25c-14,-16 -6,-4 -22,-11 14,-20 22,-14 15,-42 -8,18 4,14 -15,20 3,-44 -2,-62 11,-97l33 4c1,30 -21,109 22,122 20,-11 17,-38 23,-62 14,14 12,34 27,45 30,22 16,-15 12,-40 7,6 10,12 16,21l27 24c1,-2 1,-6 2,-5 0,1 1,-4 1,-5l1 -26c1,-33 21,-65 15,-98 -1,-8 -1,-7 -3,-11 -2,5 -2,8 -5,12l-11 11c-1,1 -3,2 -4,3 -15,-16 -22,-2 -34,-9l10 -117c12,-62 -6,-48 60,-94l59 -47c9,-6 2,0 9,-4l5 -4c5,-4 -3,-17 21,8 4,4 9,13 9,13l13 10c20,12 -1,4 25,12l-5 -9c0,-1 -3,-7 -3,-8 -6,-20 -7,-4 0,-18 -36,7 1,2 -16,5l-26 -34 11 -8c11,-9 18,-10 24,-24 -17,-13 -20,-5 -51,26 -4,-5 -10,-13 -16,-20l30 -34c3,-2 5,-3 9,-7l7 -6c11,-11 25,-27 46,-31 18,-3 14,-3 17,8 3,-24 15,-26 32,-40l147 -119c14,-9 12,4 18,14 1,-34 7,-28 21,-42 7,-7 -6,0 5,-8 23,-15 -25,13 12,-3l14 -10c0,0 1,-2 2,-2l23 -15c1,0 2,-1 2,-1 1,-1 2,-1 3,-2l84 -28c2,0 3,0 5,0 1,1 3,1 4,2 2,0 4,1 5,2 1,0 3,1 4,2l-46 28c-60,34 -50,52 -84,63 -9,2 -14,6 -15,19 0,4 0,20 0,22l175 -111c10,-3 7,10 26,-18 9,-13 20,-14 19,-31 -1,-20 -1,7 -7,-7 -3,-6 1,-12 0,-23 -14,8 -14,1 -11,24 0,0 -12,-5 -12,-5 -1,0 -3,0 -4,0 -16,1 -16,15 -31,16 -10,2 5,-6 -21,1 -10,3 -17,7 -29,9 -14,-56 -8,20 -1,-21l0 -14c-7,4 -5,3 -11,8l-33 27c-1,1 -3,2 -3,3l-29 21c-2,2 -8,7 -10,7 -20,13 -26,1 -44,15 -34,27 24,-2 -8,9 -10,-24 -11,-21 11,-31l-14 -17c8,-10 5,-10 14,-17 1,0 2,-1 3,-2l62 -48c13,-8 26,-9 32,-19l2 -7c5,-16 10,-12 1,-26 6,9 -11,29 26,4 19,-12 12,-10 18,-34 -85,3 -113,70 -136,56 20,-16 76,-40 80,-64 4,-20 -5,-7 8,-22 -27,6 -29,7 -41,3l-36 -19 31 -32c1,0 6,-3 7,-4 1,0 12,-5 15,-6 -9,-22 10,8 -4,-8 -1,-1 -2,-3 -2,-4l-21 -9c17,-5 9,3 8,-15 -1,-16 -6,-13 -6,-13 -3,-3 -7,-8 -12,-14 -12,-16 3,-6 -12,-15 -10,12 -5,-5 -2,21 -16,1 -16,-1 -35,21 -15,17 3,-1 -23,10l-72 39c20,-35 11,-14 32,-22 20,-8 1,2 15,-10 35,-30 35,-21 41,-50l1 -7c-24,3 -32,10 -36,30 -5,-9 -1,-6 -12,-11 17,-1 5,3 12,-10 17,-28 -3,9 1,-11 39,1 -5,0 20,-2l13 -1c1,0 3,0 4,0l17 0c1,0 3,-1 4,-1l14 -2 -15 -28c-17,-40 -9,-16 -13,-18l-20 9c-2,1 -3,2 -4,3 -2,1 -4,2 -5,3l-8 6c14,-25 6,-17 48,-28 -35,-49 -7,-21 -32,-65 -8,-14 1,-9 -15,-15l-47 46 45 -6c-1,2 -2,4 -3,6 -1,1 -2,3 -3,5 -9,17 -12,16 -33,21l-26 14c-4,3 -23,5 -34,15 -19,18 -36,24 -60,35 0,0 -57,39 -67,53l65 -26c0,-1 1,-1 2,-1 -12,14 -15,10 -16,11l-15 14c-24,19 -56,21 -26,57l6 8c-27,8 6,4 -25,9 2,20 15,24 3,43 -11,16 4,5 -16,9 -32,6 -6,2 -22,-2 -1,20 0,9 -6,19 -4,7 -6,10 -7,9 -1,-1 -3,3 -4,5 11,-3 35,-11 39,-19 1,-3 3,-2 5,-3 -1,2 -2,4 -3,6l-14 22c-11,14 -18,33 -44,27 0,-1 0,-3 0,-4l6 -22c0,-2 2,-3 2,-6 1,-4 3,-4 3,-7 -43,8 -13,8 -37,14 13,-7 9,-8 15,-28 -2,1 -4,2 -6,3l-12 5c-19,9 4,-1 -13,6z"/>
   <path class="fil1" d="M4195 3351c9,-13 -7,-8 21,-7l-6 16 66 60c2,1 6,4 7,5 1,0 2,1 3,2l53 41c-2,1 -3,4 -4,5 0,1 -1,2 -2,3 0,1 -1,3 -1,4 -7,23 2,39 -23,47l-54 18c-10,3 -13,4 -21,7 29,28 32,-1 82,-14 1,1 1,3 1,4l-39 195c-2,25 -12,46 -19,68 -42,17 -100,2 -153,4l-36 2c-15,0 -14,-16 -10,-31 4,-13 8,-17 13,-36 -39,23 -23,44 -50,80 -28,-14 11,-12 -32,-11 -23,1 -12,2 -40,-1 10,4 12,3 20,6 27,12 -15,14 29,23 -20,13 -2,11 -28,12 3,3 5,20 19,7 -13,1 -8,1 -16,3l-11 3c-1,0 -2,1 -3,1l-177 178c-39,25 -21,29 -42,34 7,-9 16,-15 5,-32 -9,-15 -2,-11 -13,-3 -16,11 -5,31 -9,51 -4,22 -4,4 -10,24 -1,-1 -1,-2 -1,-3 0,0 -1,-2 -1,-2 0,-1 0,-2 0,-3 -1,-1 -2,-4 -2,-5 -3,-17 11,-18 -9,-36 0,-1 1,0 2,0 14,-4 -16,25 7,-4 0,0 0,-1 1,-1 0,-1 0,-2 0,-2 0,-1 0,-2 0,-2l2 -14c0,-1 0,-6 0,-8 -4,-13 -4,-7 -7,-12 -1,-1 -4,-1 -4,-3 -1,-3 -3,-3 -5,-4 -25,32 -1,74 -13,102 9,8 -1,2 13,7l-11 39c-20,-2 -16,-3 -29,-4 5,-6 0,-5 4,6l20 2c5,35 3,40 2,61 0,1 0,6 0,8 0,1 0,2 0,3 0,1 0,3 0,3l5 105c1,19 13,44 -7,49 -10,-7 -9,-6 -33,-4 -18,2 -16,4 -38,3l9 6c20,11 21,6 44,9l-80 0c36,5 26,-12 26,-13 3,-3 -10,-3 24,-11 17,-4 16,-2 32,-6l19 -17c0,-6 -4,-12 -11,-13l-76 15c-23,21 -5,2 -50,10l-165 32c0,0 -2,1 -3,1 -23,6 -17,-9 -17,-41 -46,-24 -22,-14 -30,-8 25,-9 1,-44 -2,-58 -2,-7 -2,-11 -4,-18l-21 -83c-30,10 -25,-2 -18,29 3,14 8,30 14,41 -15,-6 -8,-1 -16,-14 -6,-11 -2,-6 -6,-16 -5,-16 -7,-23 -10,-39l-5 -22c-1,-6 -2,-12 -2,-12 -5,-20 -7,-11 -6,-30l-31 -5 16 38c-8,3 3,3 -10,0l-24 -8c-10,-3 -30,-7 -39,-9 -79,-18 -10,-23 -64,-32 -44,-7 20,18 -83,-11 -1,-1 -14,-3 -14,-3 -16,1 -6,-4 -16,6 -4,-11 -3,-7 -21,-17l24 -15c-29,-11 -61,40 -94,-23 -7,4 -8,8 -3,16 -23,11 -7,1 -19,16 34,4 54,13 79,35l-21 17c11,2 54,7 59,22l1 8c36,-1 81,33 111,9 -15,-12 -41,-19 -62,-22 94,4 81,29 143,48 35,11 21,7 45,30 9,9 5,1 6,6l5 19c5,16 6,25 11,44 4,21 11,31 14,47 -7,-6 0,1 -5,-9 -1,-1 -2,-2 -3,-3l-5 -9c-1,-1 -2,-3 -3,-5l10 29c0,1 1,3 1,4l3 8c11,35 19,76 49,102 2,0 4,-4 4,-3l7 -6c11,-9 -1,-7 35,-7l-11 -10c-14,-14 -3,-29 -22,-38 -8,-4 -5,0 -5,-10l-1 -17c16,7 22,8 25,18 8,27 -12,13 7,37l16 2c27,0 57,-4 80,12 1,1 2,2 3,3 2,1 6,4 8,5l9 5c11,-9 19,-20 34,-25 30,-10 109,-18 141,-12l-33 10c-35,6 -89,6 -115,17l7 1c36,5 82,-6 124,-15 19,-4 38,-3 61,-4 0,-18 -21,-10 11,-9 17,1 38,-6 49,-13 -9,-5 -32,0 -48,4 11,-60 34,-27 47,-61l-33 -1c0,-11 1,-15 2,-21 0,0 5,-17 6,-21 4,-16 -1,-19 8,-31 7,-11 43,-6 7,-27 -21,-12 -10,-3 -23,7 -16,13 9,-2 -9,9l15 -16c1,0 3,1 4,1 28,-3 12,-52 12,-77 0,-11 3,-30 2,-46 -7,-17 -5,0 2,-15 4,-10 9,-21 16,-25 14,-12 17,-5 45,-31l30 -26c1,0 3,-1 4,-1 24,-14 -13,10 6,-4 38,-26 44,-59 75,-71 19,-6 -10,-2 19,-22l31 -24c1,-1 2,-2 3,-3 1,0 2,-1 3,-2 24,-14 30,-7 19,-31l44 12c2,0 8,3 10,3l66 -24c33,-6 6,3 48,1l0 13c15,-8 7,-7 11,-10 10,-11 -4,-4 11,-11l25 7c2,0 3,2 5,2 7,-14 1,7 3,-13 4,-23 1,-8 0,-7 16,-1 35,3 55,-4l22 -14c10,-5 4,-2 12,-2 9,0 -14,6 8,0 11,-2 5,-2 9,-4 1,0 2,-1 3,-1l11 -5c11,-7 13,-4 18,-25 -30,0 -52,-4 -73,17l25 -67c7,-45 -4,-24 -12,-31 17,20 28,-32 33,-47 2,4 -1,18 10,31 13,-14 12,-13 9,-36 11,-13 3,10 -2,-4 -3,-11 -7,9 -1,-5 3,-8 41,29 58,-1 -6,-20 -29,-27 -47,-17l-7 -33c1,1 -1,19 17,-11 15,-25 13,-64 49,-73 -17,27 -11,17 -10,51 25,-18 20,-39 39,-63l7 -9c1,-1 3,-3 4,-4 -37,3 6,5 -13,-3l-19 -11 -15 25c-3,-6 3,-2 -3,-17l-10 -12c-9,-6 -15,-6 -23,-9 10,-20 8,-31 17,-53 -30,13 22,-6 -11,1 -12,3 -32,23 -17,35 -10,0 -9,-2 -13,-11 -10,-22 2,-34 -20,-44l18 -24 -84 -42c12,11 -13,6 10,9 -1,0 -20,-2 -20,-2 -15,-4 -4,-1 -14,-8 -22,-14 -44,-35 -56,-14 -3,5 -6,-1 1,15l13 19z"/>
   <path class="fil1" d="M1936 2613c-27,15 -49,20 -56,38 -1,-1 -3,-4 -3,-3l-27 -24c0,0 8,3 1,20 -3,-3 -6,6 -7,-18l-3 7c0,0 -1,2 -2,3 -10,9 27,-3 -8,5 -38,9 3,-10 -37,-3 -8,1 -15,1 -27,-8l49 37c12,4 11,1 23,13 -3,-3 -18,6 2,-7 2,-2 0,-7 23,-4 38,5 -22,-7 14,7 26,10 30,-3 24,22 -1,-1 14,-1 -6,-2 -14,-2 -33,8 -43,15 -1,0 -2,1 -2,2 -9,6 -19,14 -23,28 23,6 14,2 31,1l28 0c1,0 3,0 4,0l31 -2 5 19c11,28 -2,-18 8,19l32 8c23,20 4,20 4,20 -1,14 2,2 -2,1l-17 -2c6,12 -7,14 -8,26 0,0 0,2 0,3 0,0 0,2 0,2 0,1 4,8 5,9 -22,7 -25,24 -33,66l26 -9c20,9 12,7 33,-2 32,-14 23,-20 101,-53l116 -41 0 -13c25,12 46,3 86,-8 7,-2 20,-6 21,-6l70 -6c21,-3 12,-4 33,0 -3,-4 2,15 -1,-11l-3 -14c-5,-6 -13,-2 -18,2l-6 7c-3,-9 -6,-13 -24,-18 -12,-4 9,-8 -20,-3 -21,5 -11,-7 -11,10 -26,0 -2,2 -19,-14l-19 -13c-1,-1 -2,-2 -4,-2 -30,-13 -11,6 -11,7 0,0 0,2 0,2 -1,15 12,1 -8,9 -8,-14 -25,-11 -44,-22 7,-9 15,-4 24,-18l3 -7c12,-24 7,-23 20,-28 0,0 23,-2 30,-3 -1,-1 -4,-4 -5,-5 -8,-16 3,-5 20,-25 28,-32 -4,-47 -4,-47 18,-12 25,-12 28,-38l-19 9c-12,5 8,2 -20,7 9,-23 8,-20 4,-28 0,-1 -3,-4 -4,-5 4,0 9,0 12,0 19,-4 17,-6 18,-14 0,-1 -2,-6 -2,-8 13,0 10,0 22,-3 2,0 3,-1 5,-1l78 -51c-2,-1 -4,-2 -5,-3l-17 -3c-9,22 -38,29 -58,38 -2,1 -3,1 -4,2 -1,0 -3,1 -4,2l-30 13c-1,0 -2,1 -3,2 -18,11 5,1 -17,9 6,-16 10,-13 -11,-16 6,31 14,15 -17,27 9,-17 13,-6 1,-18 -3,-4 -8,-7 -12,-10l-21 -7c-1,1 -7,3 -9,3 -43,14 -27,23 -52,30 -14,4 -15,2 -23,-3 -3,17 -2,11 -9,18l-42 21c-2,1 -8,2 -10,3 -61,16 -20,51 -55,24 -4,41 -28,10 -49,44 -16,-7 -10,-9 -22,-16 -10,6 15,5 -19,5z"/>
   <path class="fil1" d="M1723 2259l11 1c11,-13 2,-7 -5,-16 -101,20 -218,25 -314,1 -63,-16 -73,-18 -123,-52 -1,0 -9,-6 -13,-8 -12,-7 -1,0 -14,-7l-29 -17c-28,-16 -24,-29 -49,-46 2,21 7,24 17,39 -33,-28 -47,-33 -86,-73 -6,-6 -1,-1 -7,-8 -65,-75 -73,-55 -111,-163 -17,-46 -29,-108 -33,-159 -4,-38 -15,-78 -17,-114 -1,-55 18,-167 39,-221 -15,-9 -19,0 8,-55 0,-1 1,-3 2,-4l26 -57c0,17 -10,32 -19,45l-9 14c-15,23 -11,26 -2,38 29,-37 24,-75 59,-84 -21,-17 -21,1 12,-59 1,-2 3,-6 4,-8l16 -27c21,-30 17,-18 34,-36l26 -36c22,-28 27,-27 47,-45l84 -55c9,-4 1,-1 11,-4 23,-9 50,-16 70,-23 33,-12 50,-14 62,-34 -9,-16 11,-2 -11,-11l-28 14c-16,4 -33,9 -50,17l-5 -27c-7,10 -10,17 -20,19 -27,4 -14,-6 -17,-10l3 27 -64 20c-1,-1 -3,1 -4,2 9,-17 -3,-16 -3,-16 -15,21 -3,14 -4,16l-16 15c-1,1 -5,4 -6,5 -2,1 -5,5 -6,5l-131 136c0,1 -1,2 -1,3 -1,1 -4,8 -5,10 0,1 -4,13 -4,13 -4,16 -14,19 -28,52 -1,1 -1,2 -2,3 -13,31 -41,52 -44,74l-9 30c-5,27 -5,13 -20,33 18,3 4,0 12,22l5 11c-1,-2 13,-3 -3,-2 -2,0 17,-14 -5,1 -11,7 -16,35 -18,45 -5,32 -13,61 -12,95 1,17 0,23 0,25l-1 34c0,3 1,15 1,16 1,24 -3,38 2,62l10 70c2,15 3,17 7,32 6,30 15,46 9,75l-3 21c-24,-10 -18,-9 -12,3 11,26 -13,-3 7,6l14 4c5,3 -5,3 5,4 1,0 2,0 3,0l14 -10c-1,23 7,29 18,46 0,0 6,10 6,10l56 58c1,1 2,3 3,3l37 57c-13,2 -13,2 -22,-8l-45 -32c-7,-1 3,-4 -15,-2 14,-22 13,-3 14,-21 2,-14 0,-9 -8,-16 -2,1 -5,5 -5,6 -1,1 -2,2 -3,3l-21 22c-1,-2 -2,-4 -2,-5l-1 -13c0,-1 6,-8 6,-10 -12,-6 -18,-11 -20,-26l-31 13c2,-12 4,-10 9,-27 -38,17 9,-3 -27,-1 -1,1 -1,2 -1,3 2,15 3,9 11,20 -21,4 -6,-1 -19,13 27,-6 0,-7 16,3l12 14c-14,-3 -23,-6 -36,-11 8,29 -5,21 -6,44 20,2 7,-3 16,-6 4,12 -23,12 19,11 -5,25 -8,19 -7,31l22 -19 21 25c11,9 1,-6 10,15 0,1 1,3 1,4l6 14 -27 18c-8,-5 0,0 -10,-7l-23 -19c-13,13 -23,11 -21,27 4,36 4,-7 31,16 -1,22 -2,32 -15,44 -2,-1 -3,-3 -4,-3l-24 -18c6,-8 15,-12 8,-20l-11 -7c1,1 1,2 1,3 0,0 0,3 0,3 0,1 0,3 0,3l-8 21c-1,1 -1,2 -1,3 -1,0 -1,2 -1,3 0,0 -1,2 -1,2 -5,14 -7,-3 -4,8 30,7 -13,1 25,-9l21 39 -17 16c12,16 2,9 27,15 -2,2 -4,3 -5,4 -36,26 4,7 -28,36 -18,-5 -11,0 -22,-12 -16,-19 7,-13 -7,-14 -19,-2 -7,6 -6,-1l1 12c-3,17 0,8 -6,13 -1,0 -3,1 -3,2l3 23 16 -18c1,0 3,-1 3,-1 1,-1 3,-1 4,-2 0,0 2,-2 3,-2 1,0 3,0 4,-2 1,-2 3,-2 4,-3 1,1 1,3 1,4l20 39c1,-1 2,-3 2,-4 1,-1 1,-3 2,-4l6 -38c2,0 3,1 4,2l13 7c8,3 7,4 19,6 -1,-15 -1,-8 -4,-15l-10 -31c31,1 9,0 31,5 9,3 1,21 15,-2 0,0 1,-1 1,-2 0,0 0,-2 0,-2l1 -8c5,-13 6,15 8,-12 -13,-10 19,-11 -21,-8l-5 22c-17,-5 -8,-1 -18,-12l-15 -24c17,6 21,9 40,12l50 -21c-13,-29 -13,-10 -1,-28l20 -18c1,-3 3,-3 5,-4 7,36 28,-28 18,32l17 -10c-6,20 -2,6 -1,15 2,14 -1,-4 2,10 1,1 4,10 4,12 -23,-4 -32,-6 -51,0 2,0 3,1 4,1l34 30c5,-11 7,-13 11,-28 -1,4 -7,1 2,13 2,1 6,20 8,-3 1,-21 -8,-6 -6,-24 15,-8 15,10 25,-16 13,-32 3,-24 -27,-18 21,-24 -4,-2 16,-11 2,-1 8,-2 11,-3 1,0 23,-1 25,-1 -1,0 -3,-1 -5,-1 -9,-4 -14,-3 -19,-14 -13,-26 -3,-7 0,-11 7,-17 2,-7 14,-6 0,0 2,0 3,0 12,3 18,12 21,24l29 -5c-6,15 -3,7 -10,13 -10,8 -4,0 -5,-1 18,18 10,18 42,13l1 9c0,0 1,2 1,3 4,11 0,6 8,8 34,7 27,16 60,20l26 7c18,6 86,14 96,25 0,0 1,2 1,2l5 12 14 -9c1,-1 2,-1 3,-1 5,0 107,31 281,-13z"/>
   <path class="fil1" d="M3269 2220l12 22c16,6 7,1 15,15 25,44 -3,16 32,65 -42,11 -34,3 -48,28l8 -6c1,-1 3,-2 5,-3 1,-1 2,-2 4,-3l20 -9c4,2 -4,-22 13,18l15 28 -14 2c-1,0 -3,1 -4,1l-17 0c-1,0 -3,0 -4,0l-13 1c-25,2 19,3 -20,2 -4,20 16,-17 -1,11 -7,13 5,9 -12,10 11,5 7,2 12,11 4,-20 12,-27 36,-30l-1 7c-6,29 -6,20 -41,50 -14,12 5,2 -15,10 -21,8 -12,-13 -32,22l72 -39c26,-11 8,7 23,-10 19,-22 19,-20 35,-21 -3,-26 -8,-9 2,-21 15,9 0,-1 12,15 5,6 9,11 12,14 0,0 5,-3 6,13 1,18 9,10 -8,15l21 9c0,1 1,3 2,4 14,16 -5,-14 4,8 -3,1 -14,6 -15,6 -1,1 -6,4 -7,4l-31 32 36 19c12,4 14,3 41,-3 -13,15 -4,2 -8,22 1,-2 5,-5 5,-3 1,1 4,-2 4,-3 0,0 2,-1 3,-2l151 44c11,2 11,3 24,4 -13,18 0,1 -10,6 -13,8 -7,-2 -16,12 14,13 26,10 28,11 -5,20 -7,16 -24,30 -22,17 -4,3 -4,3 -2,2 -3,-11 -3,9l44 -33c20,19 1,-3 8,21 15,-5 32,-20 38,-36l1 5c13,20 -23,-16 5,6 22,18 47,13 72,9l6 -9c0,0 1,0 1,0l26 7c22,4 4,-3 24,5l-12 -17c0,0 0,-1 0,-1 54,-3 50,-14 86,-27l43 -16c1,0 2,-1 3,-1l74 -30c6,-4 17,-14 25,-19l19 27c0,1 1,2 1,3l25 36c5,6 4,4 9,11 -1,1 -1,2 -2,4l-17 22c-7,7 2,-7 -11,11 18,-6 25,-7 37,-21l23 22c20,20 11,22 45,50 29,24 33,20 6,83l-5 11c-6,15 -13,28 -9,39 9,22 -13,-5 11,16 2,-26 4,-21 15,-43l10 -27c8,-20 -1,-3 3,-6 24,-14 4,4 7,-17 0,-3 -6,-7 5,-11 12,10 5,15 17,27 11,10 22,10 37,11l-18 -25c-9,-15 -1,0 0,-15 0,-1 0,-3 0,-3 0,-26 -56,-71 -71,-93l-6 -10c-1,-1 -2,-3 -2,-4 -1,0 -7,-8 -8,-10 -5,-7 -12,-13 -16,-21 40,-8 29,13 50,35 9,-4 7,-1 18,-9 -1,-1 -3,-4 -4,-3l-34 -31c-2,-1 -7,-1 -9,-2 5,-7 8,-5 6,-18l-8 -15 -19 18 -8 -19c-4,-11 -22,-9 -16,-21 -19,2 -8,24 -23,-21l-7 -18c-38,2 29,-7 -12,3 -9,2 -1,5 -17,3 -8,-22 -35,-44 -51,-61 -15,-18 -2,-13 -37,-18 7,22 24,26 35,42 7,9 6,13 12,21 9,12 3,11 19,14l-11 4c-8,1 -10,1 -18,3 -26,4 -36,15 -58,22l-130 41c-11,5 3,2 -13,7l-14 -17c6,0 6,0 13,-3 40,-17 99,-60 126,-68 -16,-17 25,-24 -29,-8l-56 32c-26,20 -14,2 -34,12 -21,10 -12,16 -36,24l-26 13 -6 -15c-16,11 -36,26 -54,25l-71 -15c-21,-13 -11,-19 -23,-40 -5,-11 -9,-20 -14,-31 -2,-8 -7,-20 -11,-29 -5,-12 -10,-20 -13,-30l-10 -23c-1,-1 -1,-3 -2,-4l-36 -97c-1,-3 -5,-12 -6,-13 0,-2 3,-11 -10,-25 -14,-14 10,-2 -21,-13 -3,16 2,21 3,31l5 46c1,0 1,2 2,3l94 185c14,13 4,-3 19,16l-65 -3c-23,-15 -8,6 -20,-18 -16,-31 5,11 -5,-18 -13,-33 -28,-80 -47,-111l-29 -59c-11,-25 -32,-41 -43,-67l-6 -17c-7,-19 -76,-4 -94,-1z"/>
   <path class="fil1" d="M2319 2746c0,-17 -10,-5 11,-10 29,-5 8,-1 20,3 18,5 21,9 24,18l6 -7c5,-4 13,-8 18,-2l3 14c3,26 -2,7 1,11l9 10c1,1 2,1 3,1 32,14 26,16 50,31 1,0 2,1 3,2l14 8c24,15 22,9 35,8 48,-4 37,-10 83,-32l11 -6c1,-1 3,-2 3,-2 5,-4 11,-13 13,-16l13 -8c9,-4 -14,21 22,-16 47,-49 -1,17 33,-39 8,-12 3,-6 15,-14l44 -38c0,-1 1,-3 2,-3l31 -38c11,-14 7,-7 7,-5 10,-2 8,-6 11,5 0,1 0,2 0,3 0,13 -4,13 -11,27l43 -1c-1,-1 -2,-5 -2,-6 -9,-33 -5,-25 -19,-29 42,-13 -2,-12 28,-13 15,4 6,2 25,7 -3,-28 0,-28 8,-51 6,-20 2,-18 5,-41 6,-38 24,-31 14,-55 -4,-9 -8,23 -3,-14 -13,-18 18,-20 -16,-14 0,24 -5,34 -9,55l-7 41c0,3 0,4 -1,6 0,2 0,3 0,5l-6 36c-8,25 6,8 -15,25 -5,-26 1,4 -11,-17 -11,-20 0,-29 -13,-44 -4,-4 0,0 -7,-5 -10,-5 -30,-13 -33,-20l3 -7c-10,11 -4,9 -17,15 -43,20 -17,5 -27,1 5,-26 -10,-16 22,-17 -22,-21 5,-7 -18,-7 0,0 -2,1 -2,1l-6 6c-1,0 -2,2 -2,2 -4,3 -3,10 -22,12l-7 -1c0,0 -2,0 -2,-1 0,-1 -1,-1 -2,-1 4,3 13,-21 -4,3 -7,9 -11,0 -2,20 -1,-1 -11,-4 -13,-4 -12,-1 -21,7 -31,9l18 -32c11,-9 9,-6 26,-10 -19,-17 -19,-11 -21,-10l-23 24c-1,-16 -1,-18 -5,-33 20,-3 31,-8 44,-22 -16,6 -18,5 -35,-4l-9 -7c0,2 0,4 0,5l0 28 -29 -17c-8,-10 -4,-9 -10,-21 1,13 7,14 -12,16 13,3 13,1 14,1l15 27 -15 -4c0,-1 0,-1 0,-2 -15,20 1,12 -19,15 -23,3 -12,2 -21,-9 12,-4 -5,-7 4,2l4 6c0,-1 2,2 3,3l-59 34c-12,4 -12,0 -30,-1 16,13 7,7 14,10l24 18c0,-1 1,3 0,5l-10 16c-30,16 14,-6 -25,5 -10,3 -23,11 -25,12 -16,4 -22,-2 -38,-7 19,13 5,-3 9,13 8,36 12,-25 -1,8 -3,9 -5,7 -14,11 -1,0 -18,0 -18,0 -17,-4 -7,5 -4,-4 -30,17 3,-10 -6,11 -3,8 6,5 -5,7 6,-1 13,-4 23,1 9,5 14,30 -28,15l33 11c-9,15 -13,10 -30,22l-32 22c-19,10 -31,32 -32,34z"/>
   <path class="fil1" d="M2402 2773c-21,-4 -12,-3 -33,0 10,27 -1,9 21,25 20,14 57,34 71,53 -14,9 -3,2 -17,6 -2,0 -3,1 -5,1 -1,0 -3,1 -4,1l-56 23c-1,0 -2,1 -4,1 -1,1 -2,1 -4,2l-37 10c-80,16 -41,30 -62,64 -17,29 -12,-20 -18,34l-3 16c-4,6 -3,-2 -13,15 8,27 4,1 -4,27l-11 57c-2,21 1,44 -7,72l-3 8c-8,22 7,38 5,56 -4,49 1,66 -2,90 -4,43 -5,-18 -2,15 2,19 2,14 11,25 10,0 11,-2 13,-2 19,-3 18,2 47,7 40,7 11,9 59,15l51 7c30,9 -1,10 27,9 6,0 18,-22 27,21l16 56c12,34 11,41 16,75 16,130 24,40 -3,139 -5,19 -3,23 -13,40l-13 22c-1,3 -3,10 -4,12 -1,1 -8,11 -8,13 -6,13 -3,-3 -5,18l0 36c-8,32 3,-6 -16,21 -13,18 1,6 -12,28 -14,24 -17,20 -23,51 -15,19 -9,9 -15,34 53,-3 39,-28 63,-60 2,-2 14,-14 5,-26 27,13 13,2 21,-5l-7 -18c0,0 0,-1 0,-2l6 9c1,1 2,2 3,3 1,1 3,3 4,4 1,1 2,3 4,4l17 -51c1,-2 7,-10 7,-10 12,-25 10,0 4,-33l7 9c0,1 1,3 2,4 0,0 1,2 1,4 20,-39 37,-8 37,-8 -15,-8 -20,-3 -32,-23 32,-18 -10,-1 16,-21 14,-11 -1,-10 35,10 -11,-42 -11,-12 -22,-44l18 -9c1,-1 3,-2 4,-3 -5,-11 -17,-20 -12,-35 0,-1 1,-2 1,-3 6,-11 7,0 10,-21 -19,-15 3,-7 -22,6 2,-33 13,-16 -16,-28 31,18 10,-24 6,-32 -11,-29 -11,-29 -23,-31l14 1c-1,-19 -5,-36 -9,-52l-11 -45c-19,-49 -5,-49 1,-56 -18,-16 -4,-17 -24,-15 19,-5 -8,7 23,2l10 -4c-20,-21 -30,-22 -49,-30 -26,-4 -6,2 -21,-8 -7,-4 -16,-12 -16,-12l-101 -37c-13,-8 -11,-5 -18,-17 -21,0 4,17 -36,-7 17,-12 12,24 17,-11 3,-25 3,-4 -8,-9l-6 -2c1,-13 1,-83 1,-83l22 -236c14,49 -6,61 -7,108 -1,41 1,76 -13,117 17,-15 5,0 12,-15l2 -11c0,0 0,-2 0,-3 13,-77 -1,-180 49,-199l62 -17c22,-8 5,-11 37,-18 25,-5 12,-2 14,-11l27 -3c29,9 -10,-11 8,3 1,1 3,2 4,3l7 8 -1 -20c13,8 30,3 53,6 -16,-22 -8,-19 -33,-19 -15,1 -3,2 -9,-6l-3 -3c-6,-6 -1,15 -4,-3 0,-1 -2,-1 -2,-1 6,-6 10,-5 8,-9l50 4c-4,-15 -1,-26 -5,-5l48 -28c17,-14 11,1 33,-23 24,-26 30,-17 60,-46 0,-1 1,-2 2,-3l9 -8c4,-4 6,-6 8,-8l41 -41c6,-6 9,-9 15,-14 0,0 2,-2 3,-2l6 -4c30,-16 -27,11 9,-3 0,0 2,-1 2,-1l4 -2c19,-19 -11,27 10,-37l3 -10c-3,-11 -1,-7 -11,-5 0,-2 4,-9 -7,5l-31 38c-1,0 -2,2 -2,3l-44 38c-12,8 -7,2 -15,14 -34,56 14,-10 -33,39 -36,37 -13,12 -22,16l-13 8c-2,3 -8,12 -13,16 0,0 -2,1 -3,2l-11 6c-46,22 -35,28 -83,32 -13,1 -11,7 -35,-8l-14 -8c-1,-1 -2,-2 -3,-2 -24,-15 -18,-17 -50,-31 -1,0 -2,0 -3,-1l-9 -10z"/>
   <path class="fil1" d="M1453 944l-6 -19c6,7 10,12 17,7 0,-1 1,-2 2,-3l39 -9c-5,-30 4,-21 25,-23 -1,-1 -3,-3 -4,-4 -22,-27 -3,-28 -7,-34 -19,-26 -50,20 -28,-17 -9,2 -29,4 -30,4 -41,-3 -13,-11 -47,11 6,-23 8,-18 -4,-22l-31 -5c-4,1 -3,1 -5,5 -6,12 5,0 -5,19 -9,16 -1,4 -6,4 -1,0 -7,-2 -8,-2 -1,0 -3,0 -4,0l-7 -1c-2,0 -9,-1 -10,-1 -9,-4 -4,-9 -7,-12 -31,-32 -4,21 -13,-9 -1,-2 -3,-1 -5,-2l-12 17c-6,2 -18,4 -26,5l13 -19c1,-1 2,-2 3,-3l21 -18c7,-5 32,-8 36,-17l2 -5c0,-1 1,-3 1,-5 0,-2 1,-3 1,-4 17,6 21,-2 38,-8 16,-6 33,2 50,1 1,0 2,-1 3,-1 25,-1 6,10 41,2 1,2 2,4 2,6l8 18c0,-1 1,3 1,4l25 -34c2,-1 3,-1 4,-2l14 -8c3,17 -2,3 18,11 1,-1 1,-3 1,-3 1,-5 0,-12 7,-13 19,-1 8,12 26,-10 14,12 4,1 15,13 5,5 4,4 8,11 6,-17 -8,1 7,-7 1,0 2,-1 3,-1l28 -8c13,-6 20,-7 33,7l8 -8c10,-3 13,-1 14,-1 -4,-16 -8,-8 -23,-7l-40 -8c-10,-3 -2,20 -10,-1 0,-1 -2,0 -3,0 0,-2 -3,-12 -3,-13l1 -12c44,0 -5,0 17,3 30,4 16,-14 49,2 -5,-20 -6,-20 0,-11 -7,-8 -20,-10 -26,-11 -27,-6 -13,-8 -23,-11l8 -12c0,-6 -6,-8 -3,-17 0,-1 2,-4 3,-5 14,-17 -4,-9 8,-4 -2,-2 -4,-3 -6,-4l-28 -12c-21,-14 -2,-21 -1,-22 9,-10 -4,4 13,-9l16 -25c25,-9 23,1 39,0 -20,-25 3,-2 -16,-12 -33,-17 17,1 -16,-5 -23,-4 -43,6 -58,23l0 -12 -12 -1c-25,-6 -6,3 -19,-12l-9 29c-11,14 -14,11 -24,12 0,-2 2,-11 4,-17 5,-19 3,1 23,-22l-84 11c-1,-1 -3,0 -4,0l-3 -9c-5,-9 -6,-7 -16,-10 21,1 23,-8 35,-18 8,-6 -1,4 9,-5 -15,-12 -6,-6 -25,-12 -34,21 17,15 -39,21 11,-27 23,-35 24,-39 1,-2 2,-2 3,-4 0,-5 -7,-5 13,-15 13,-7 -4,-6 25,-6 0,-1 0,-3 0,-4l2 -12c4,-13 15,-11 18,-24 1,-4 2,-4 3,-6 -33,4 -45,12 -55,44l-31 -11c-1,1 -2,2 -3,3 -1,1 -2,2 -3,3 -9,5 0,2 -17,4 14,-28 1,-5 27,-26l-19 -4c-28,1 19,8 -9,4 2,-2 -1,7 3,-9l-19 -24 -44 28c-2,1 -4,2 -6,2 -1,1 -4,2 -6,3 11,8 25,10 45,11 -1,0 -1,0 -1,0l-22 -6 8 38c1,-1 2,-3 2,-3l20 -21c15,19 32,18 51,19 -38,38 34,-23 -25,14 -18,11 -12,11 -11,25 -1,-1 -3,-2 -3,-2 -11,16 12,4 -8,-3 -17,-5 6,-2 -22,-6 1,1 6,12 7,13 9,25 12,0 2,11 -7,8 12,8 -13,-5 -2,-1 -4,-3 -5,-4 -17,38 1,15 -19,19 -3,-3 -8,-3 0,-7l13 37c1,1 2,3 3,4l6 9c-14,-9 -10,-20 -23,-6 -13,14 -6,-7 -11,15 16,7 5,1 15,3l6 2c1,0 7,2 9,3 -3,28 -12,3 -7,26 5,21 -13,-7 5,10l93 -38c7,-3 5,-5 18,-9 6,11 2,8 1,17l-1 14c-22,-4 -7,-4 -31,6l4 2c0,1 -1,3 -1,4 0,2 -2,10 -2,12 -23,-9 -23,2 -14,-13 -13,22 0,24 -32,33l6 17c-1,4 -8,9 -10,20 0,1 0,3 0,4 0,2 1,4 1,5 0,1 1,3 2,5 20,4 34,-9 50,4 0,-2 -3,-9 -3,-11 -5,-16 -8,5 -3,-10 24,5 0,-1 15,9l14 9c3,2 8,4 29,5l-13 7c-17,8 -19,5 -24,26 -2,-1 -16,-7 -18,-7l-34 -10c-4,20 -4,15 -19,21l-44 13c-10,-9 -4,-1 -10,-13l-7 -20 -17 9c-1,1 -2,2 -4,2l-8 7c-1,1 -2,2 -4,4 1,-22 -1,-19 -20,-27 5,17 10,10 6,26 -8,29 2,-5 -4,8l-9 15c18,-1 4,-6 20,1l18 15c-15,8 -8,9 -15,12 -20,8 22,16 -10,0 -12,-6 -1,7 -8,-9 -10,22 0,16 -17,20 -1,1 -3,1 -4,1l-6 20c-28,5 -16,7 -21,13 -19,24 21,10 -30,20 0,-2 1,-6 2,-5 0,0 1,-4 2,-6 0,0 5,-14 5,-15 1,-5 3,-17 4,-29 21,6 19,10 38,0 -14,-35 -14,-32 -49,-12l-8 4c-2,1 -3,2 -4,3 -2,0 -3,1 -5,2l-19 22c-11,9 -24,10 -37,14 27,6 19,7 44,6 -1,1 -3,1 -4,4 -1,3 -3,3 -5,4 -7,5 -17,9 -28,6l-9 -6c-5,-11 -2,-5 8,-25 -2,2 -4,2 -4,6l-12 16c-5,9 6,5 -9,14 -17,11 -22,-16 -21,12 31,-9 15,8 40,3 28,-6 0,10 11,-7l1 18c26,-13 26,-33 60,-21 4,1 5,6 0,-13 2,0 12,3 14,3l21 -3c2,0 3,-1 4,-2 1,-1 2,-2 3,-3 21,-15 -22,11 8,-7 0,1 1,2 1,4 0,3 2,7 2,9 5,27 -3,-4 2,15 2,0 6,-4 7,-2l37 -5c45,18 -35,2 11,8 -2,-6 6,1 17,-22 1,2 4,1 5,4 14,33 -20,-7 10,5l31 3c34,-2 19,-8 61,-5 19,1 19,-5 39,1 7,2 -7,12 27,1 -7,2 -12,-9 -4,23 -14,-7 -14,-18 -26,1 24,-21 -10,-22 -11,-23 4,25 11,20 -28,22 -34,2 -25,7 -30,18l-6 19 -10 -23c-1,-1 -2,-6 -3,-8l-33 11c12,21 16,8 19,33 1,-1 2,-4 2,-3 4,9 3,-7 14,-5l9 5c0,0 2,1 2,1 14,6 48,3 59,-1z"/>
   <path class="fil1" d="M2876 1780l1 25c0,1 2,8 -8,21 -1,1 -2,2 -3,3l-22 2c27,34 -20,-7 18,14 1,0 3,1 4,1 -1,0 1,-20 -11,3 0,1 -1,3 -1,3l1 7c13,23 13,9 38,4 -3,29 -12,26 5,28 -17,9 -9,-14 -10,11 -1,17 -5,5 10,22 -37,-11 -26,-1 -52,15 -2,1 -6,3 -7,4l-13 3 3 -19c0,-2 -4,-24 15,-30l14 -5c1,0 3,-1 5,-1 -12,-12 -14,-13 -9,-34l-24 10c0,1 -1,2 -1,3 -16,30 -2,33 -19,44 0,0 -25,5 -26,5 10,7 0,-8 14,21l-24 6 11 16c0,1 -2,4 -3,6l39 -11c7,7 5,1 8,17l14 32c-34,16 -27,18 -22,45 -38,-6 -43,-23 -44,22l-26 3c-8,1 -1,0 -9,1 -7,-9 10,-14 -4,-11l-10 -13c-7,27 12,12 -15,19 5,15 6,-12 15,10l-12 8c0,0 -15,2 -19,3 10,22 -13,20 -31,43 -1,1 -2,2 -2,3 -21,33 6,43 -22,37 0,0 -3,-1 -3,-1 -1,0 -3,-2 -4,-1l-15 31c-18,17 -23,7 -10,13 -20,18 -14,-11 -8,28 17,5 7,-5 20,12l28 -34c0,0 32,-20 37,-30 -5,-15 0,-3 -20,-11 17,-17 13,-9 17,-9 6,-2 20,1 29,-12l39 -23c-2,27 -17,28 -30,26 17,32 18,10 -5,31 -8,7 -19,-1 -12,22 21,-1 7,-3 31,-16l6 -2c8,23 -9,37 -15,76 -8,-7 -13,8 -15,-27 -1,-29 -7,-6 12,-22l-17 -7c-7,-5 -4,0 -7,-15l-17 18c-1,2 -5,6 -6,7 -8,10 -25,-7 -6,15l4 2c1,0 3,0 3,0l11 -2c-16,16 6,7 -28,11 4,9 -3,26 10,27 0,0 2,-1 2,-1 25,-2 -27,-14 23,-4l-9 16c-1,1 -2,3 -3,5l27 11 -6 17c0,1 0,2 0,3 0,1 0,2 0,3l-5 21c12,2 -1,-2 10,1 0,0 3,1 4,1 0,0 2,1 3,1 27,15 1,-5 6,9 5,17 1,27 -5,43 19,-3 16,-5 31,-5 2,21 6,17 6,33 0,21 -10,21 0,33 0,0 24,8 26,-13l22 52c12,40 32,56 34,-4 5,-16 -3,-83 -4,-100 -2,-15 6,-21 0,-66 -1,-1 -1,-9 -1,-12l-6 -16c-15,15 -9,31 -2,44 -7,1 -14,3 -25,5 7,33 2,42 3,56 2,30 12,15 5,39 -6,-23 -21,-50 -30,-67 -26,-46 -12,-13 0,-62 -38,5 -20,-9 -28,14 -2,-18 -21,-43 0,-91 1,-2 2,-3 2,-4 12,-26 6,-22 11,-40 4,-15 1,-4 8,-19 1,-1 1,-2 2,-4 1,-1 1,-2 2,-4l16 -49c19,-44 52,-105 86,-140 4,-5 3,-3 8,-8 0,-1 1,-2 2,-3 0,0 1,-1 2,-2l36 -32c77,-69 27,-23 78,-48l111 -50c66,0 28,-4 56,-32 1,-1 10,-6 10,-6 -5,-4 -18,6 -19,-25l5 -135c-7,-31 6,-13 -19,-22l-5 21c-2,-4 1,-8 -16,1 2,0 4,1 5,2l22 9c-9,15 0,9 -17,22 0,0 -3,3 -3,2 -1,-1 -3,1 -4,2 21,6 5,5 19,24 -10,7 -13,2 -25,5l8 5c17,15 12,17 10,40l-9 60c3,-2 11,-4 -13,-15 4,24 -8,10 6,24 -33,3 -21,0 -49,17l12 -28c7,-13 10,-3 11,-8 1,-2 3,-1 4,-1 -1,-2 -4,-3 -5,-4 -1,-1 -3,-3 -4,-4 0,-1 -2,-2 -3,-3 -10,-14 -5,4 0,-8l14 3c7,-4 5,-5 8,-8 17,-16 -15,2 8,-8 -12,-7 -9,-2 -34,4 1,-2 4,-9 5,-11 0,-2 1,-3 1,-5 0,-11 -10,-20 -10,-21 19,14 28,-16 0,-12 -19,2 -5,-8 -15,11 -14,1 10,-1 -7,36 -1,1 -1,2 -2,3l-23 31c-8,11 -2,3 -7,9 0,1 -1,2 -2,3l-35 38c-14,11 10,10 -32,11 7,-6 20,-17 21,-27 1,-7 -2,-10 -10,-14 16,-9 18,-1 19,-22 0,-2 0,-3 1,-5 5,7 -3,5 14,4 33,-1 19,-2 20,-11 23,-6 7,1 8,-12 0,-1 0,-3 -1,-4 0,-7 25,-13 -13,-17 -31,-3 -2,2 -19,10 -1,0 -2,1 -3,1l-28 22c-12,10 2,-2 -11,5 -33,16 1,15 -21,25 -10,-24 -6,-33 1,-53 -59,14 -12,-9 -44,-4 -19,3 -3,-17 -17,9z"/>
   <path class="fil1" d="M1011 489c-8,11 -32,5 -55,39 21,1 12,3 26,-1l259 -122c13,-6 32,-12 46,-19 -11,19 -19,11 -26,37 -16,-5 -6,-5 -7,-11 -1,1 -3,0 -3,2l-66 34c-1,1 -3,2 -4,2 -5,3 -9,6 -12,10 26,-4 42,11 85,-19 25,-17 0,1 11,-8 5,-4 7,-6 11,-10 6,3 7,15 22,17 13,-36 15,-18 28,-42l2 6c0,1 1,2 2,3 8,9 -8,-1 12,10 -4,-35 4,-11 33,-38 -31,-2 -28,-2 -44,10 -10,7 1,8 -13,6 -6,-15 9,-19 17,-27 -1,-1 -2,-4 -3,-3 0,1 -2,-3 -2,-3 -14,-18 -5,-5 13,-17 1,0 12,-11 13,-13 7,-14 3,-15 3,-17 9,-28 3,-9 33,-19 12,-35 0,28 -1,-10 -1,-5 -12,14 1,-11 8,3 1,6 13,8l8 -26c-38,-1 0,11 -33,16l17 -42c15,-34 -2,15 1,-9l1 -8c0,-2 3,-15 3,-17l12 28c5,-17 12,-31 -1,-48 0,-1 -2,-3 -2,-3 -1,-1 -2,-3 -3,-4l-4 -6c23,-9 22,-6 43,-3l5 -8c6,-10 12,-18 4,-27 2,10 -14,9 -29,11 10,-27 0,-6 11,-20 1,-1 2,-2 3,-3l8 -9c1,-1 2,-2 3,-3 26,15 37,4 47,-2l14 -5c6,-2 5,0 12,-4 -7,14 5,9 -20,14 18,15 27,1 27,36l-12 -10c-8,-3 -35,23 36,23l48 -12c3,5 4,4 6,16 1,10 1,6 0,17 -1,37 -4,-8 -3,28 13,-17 -7,-60 26,-71 9,-3 13,1 16,6l2 8c6,-7 39,-37 55,-14 0,1 1,3 2,4 1,1 2,3 2,4 1,1 2,3 3,5 10,-20 -2,1 17,-12 17,-12 4,8 15,-13 -17,-14 -22,-10 -40,0 -16,-31 7,-4 -35,-7l-46 -3c-2,-5 -2,-2 -2,-8l1 -8c0,0 0,-2 0,-3 1,0 2,-1 3,0l11 -3c14,-6 10,-8 23,-6 5,0 12,4 18,-1l7 -9c0,20 -1,6 10,15 1,1 2,2 3,2 34,26 31,9 64,0 0,1 1,2 1,4 0,2 1,3 1,4l-6 16 41 -1c9,1 6,-2 14,4 9,8 3,5 9,19l19 36c0,1 0,3 0,3l13 12c-2,1 -4,0 -5,2 -10,27 1,-1 -9,5 -11,6 -5,-3 -13,9 25,-17 -22,12 34,-3 1,40 5,0 6,31l11 6c-1,1 -1,2 -1,5 0,3 0,4 0,5 1,18 10,32 15,49l15 40c1,1 1,2 2,3l5 14c-24,-5 -7,1 -21,-9l-7 -8c-15,-19 -17,-21 -42,-26l-2 13c-1,1 -1,3 -1,4l48 31c1,1 2,2 3,3l25 12c24,15 10,9 15,23l2 9c1,1 1,3 2,4 0,1 1,2 1,3 1,1 1,2 2,3 0,1 1,2 1,3l2 6c1,0 1,2 1,3 0,0 1,2 1,2l33 45 -28 -68c28,0 25,7 39,13l52 27c1,0 3,1 3,1l22 -11c-45,-3 -50,-3 -61,-34 32,12 12,11 41,17 29,7 36,14 62,25l84 47c16,14 12,6 33,13 31,11 21,32 24,3 51,5 9,6 27,-11 -50,-26 -21,-22 -97,-49 -66,-23 -87,-42 -182,-70 -28,-8 -39,-31 -58,-52 -7,-8 -10,-15 -15,-26l8 -3c1,0 3,-1 3,-2 1,0 3,-1 4,-2 -30,-12 -18,2 -29,-26l-15 -40c-1,-3 -6,-14 -7,-15l-6 -15c-10,-22 -7,-11 -13,-33 -6,-25 -27,-38 -44,-66 -11,-19 -17,-50 -31,-70l16 55 -29 3c19,-4 4,3 11,-11 0,-1 1,-2 1,-3 0,-1 1,-4 2,-6 -17,-14 -22,-8 -37,-22l-27 2c-22,9 -37,12 -59,3 13,-7 12,-4 22,-7 22,-8 8,3 21,-15 -41,-6 -28,10 -52,17l-45 1c-31,-3 -51,8 -78,13 -18,3 -13,1 -29,2 -13,1 -38,-4 -49,8 0,1 -1,2 -2,3l-6 -24c-25,10 -11,17 -27,46 21,-14 -21,6 -22,7l2 7c0,1 0,3 1,3 0,1 0,3 0,3 1,15 -16,33 -18,34l-9 8c3,26 4,5 2,27 8,-8 -7,1 -9,15 -1,20 -14,40 -21,55l-3 14c-1,3 -7,14 -8,14l-21 14c0,3 -2,8 -3,9 -1,5 -2,7 -4,13 -7,21 -23,24 -35,39 -15,19 2,-14 -3,8 0,1 21,10 1,4l-63 31c-19,8 -19,10 -33,20 -1,0 -2,1 -3,2 -21,13 -46,19 -66,29l-80 34c-11,4 -11,4 -20,8z"/>
   <path class="fil1" d="M1312 2410c-1,13 -7,17 -15,26 19,25 2,0 8,21l74 27c-32,12 -32,-23 -36,20 22,5 25,-5 28,16 6,43 -25,16 -39,5 -10,-8 -2,-3 -13,-9l-16 -6c-31,-13 6,23 -10,-6 5,18 19,17 18,39 11,-7 4,-5 20,-10l6 20c6,11 0,7 11,11 -2,0 -3,1 -4,1 -18,4 -11,1 -21,14 0,0 -1,1 -1,2l-20 14c26,31 5,0 44,13 31,11 11,12 24,18 14,6 13,5 21,1 -8,-19 5,-11 -31,-22l-14 -8 44 -14c2,38 13,27 44,31 15,2 -8,1 22,6l6 31 -24 0c0,0 -2,1 -2,1l-15 3c-12,7 -5,7 -19,10l-5 16c2,0 3,1 4,2l12 8c-3,7 -2,7 -7,11 -12,11 -2,1 -11,0l-25 0c6,10 -6,17 23,19 -37,10 -24,4 -43,19 10,7 15,-1 17,-2 1,12 9,4 -6,14 -20,13 -30,-10 -42,-23 1,-1 3,-1 4,-2 1,0 3,-1 4,-2 2,0 3,-1 4,-2l15 -38c-8,-9 -3,-2 -8,0 -26,7 -25,6 -29,-22 -1,1 -15,6 -16,6 -11,1 -11,0 -15,-14 -6,-18 -5,4 -2,-14 -27,7 -12,6 -23,1l-9 -12c-18,-20 -12,-5 -24,0l-16 5c-11,6 -2,-1 -5,11 -3,13 -21,30 -12,46l15 -19c2,27 -6,6 19,7 1,4 25,-14 -3,24 -28,38 -5,-8 -14,14 36,20 -7,-21 36,10 5,4 13,7 32,-2 -25,-5 -18,-4 -37,-16 16,2 17,-9 22,-22 1,1 6,4 7,5l18 7c6,1 17,1 22,10 11,22 -1,-9 -1,8 0,6 -17,-16 16,26 -8,-1 -29,-1 -32,-10 -1,-2 -3,-2 -4,-3 -1,19 0,11 -12,20 -23,19 -21,57 -3,64 15,-18 3,-9 9,-24 6,-15 6,-13 14,-16l38 -7c12,-4 -1,-2 19,-6 9,39 -2,-6 11,22 -9,0 -19,0 -28,-1 -2,0 -14,-4 -15,-4l1 9c2,7 6,12 12,7 7,38 0,18 -8,26 3,-13 1,-1 -2,-2l-9 0c-36,5 -35,0 -52,7 -25,11 -14,23 -14,23 9,2 16,-5 22,-11l27 29c-29,-1 -20,3 -44,-9 -12,9 -14,-18 -8,15 20,6 17,0 29,8 18,12 -9,7 29,15 2,-5 0,-12 5,-18l31 14c9,7 10,-19 13,25l38 -17c-21,-22 -5,-9 -29,-18 0,0 -12,-4 -13,-5l-11 -7c-1,-1 -2,-2 -4,-3 11,-3 4,-1 14,-3 2,0 4,-1 6,-1l10 -1c10,-23 -7,-5 9,-18l23 -23c21,-12 27,23 27,23l23 -4c-1,1 -3,0 -3,2l-21 20c1,0 3,-1 4,0 6,19 0,-9 17,0 -9,21 -5,15 -19,27 0,0 5,27 17,-1 0,-1 0,-7 2,-13l23 -33c1,-1 1,-2 1,-3l2 -16c29,5 32,10 30,-11 0,1 -2,1 -2,2 -4,11 -39,-6 -44,-9 -15,-9 -8,-5 -13,-10 12,-1 6,1 10,1 1,0 2,0 4,-1l14 -2c3,-23 0,-41 13,-51l4 0c20,3 2,3 0,4 7,-20 11,-19 4,-41 -6,8 -10,10 -15,22l-52 -25c31,-7 9,6 19,-28 21,13 4,-7 21,8 1,1 1,2 2,2 9,10 -16,4 4,7l-4 6c-2,1 4,-3 5,-1l15 -4c1,0 3,-1 5,-1 -14,-57 -6,17 -20,-45 28,10 32,25 55,41 37,-13 14,-12 46,-5 21,4 30,-2 41,-15l7 -9c14,-13 30,-2 36,-1 24,5 -20,13 11,0l13 -11c-16,2 -27,5 -36,-6 -1,0 -2,-3 -3,-4 -1,-1 -9,-9 -10,-10 -25,8 -14,5 -23,22l-4 8c-1,1 -2,2 -2,3 -11,16 -11,-12 -13,23l-12 -7c-1,0 -2,-1 -3,-1l-19 -16c8,-8 1,-2 11,-7 16,-7 15,2 24,-15l-39 10c-17,4 16,5 -9,1 -16,-3 -9,-5 -10,-7 -6,-8 -4,-12 -3,-21l-17 5 8 -38c-17,2 -25,6 -35,-8 16,-10 20,-4 22,-3 18,5 13,12 13,14l20 -18c12,-6 6,-7 22,1 -6,-31 -20,-21 -36,-15 -1,-2 -4,-17 -5,-19l-5 -8c-1,-2 -5,-6 -7,-7l0 -9c-32,-41 -42,-1 -66,1 -16,1 -24,-5 -42,2 13,-21 4,-9 30,-20l-4 -13c3,-1 -3,-12 13,3 19,16 -17,5 19,13 -10,-23 -7,-2 1,-30 -3,0 -18,-3 -19,-4l-58 -8c-14,-2 2,0 -11,-1 -18,0 -3,5 -12,-11 -28,1 -21,-13 -17,9 -11,-13 5,-12 -16,-18l28 -14c-18,-6 -11,-10 -22,-19l-14 6z"/>
   <path class="fil1" d="M1094 2805c10,-9 11,12 8,-13 -24,-3 -10,-1 -31,-11 -2,-1 -3,-2 -4,-2l-15 -8c-22,-18 2,-9 -25,-31l-12 -8c26,-6 29,2 18,-25l34 13c-7,-14 -11,-16 -3,-26 23,-28 6,13 23,-23l-20 -13c0,-2 -1,-2 -2,-3 11,-9 1,-5 20,-11 17,-6 6,3 20,-8 -21,-11 -15,-5 -33,-10l-6 -3c-10,-1 -5,-1 -9,4l-6 16c-15,30 -20,20 -14,51l-43 -5c-18,-4 -6,-6 -5,-9 1,0 2,-2 2,-2l20 -18c0,0 2,0 2,0l11 -2c19,-4 5,-3 5,-1 -9,-12 -4,-4 -14,-13 -1,-1 -3,-2 -3,-3l-20 -15c-1,0 -3,-1 -4,-1 -8,-3 -9,-4 -20,-6 13,24 12,1 18,18 2,6 -2,16 -15,13l-22 -15c-13,-4 -5,-2 -22,3 8,18 13,17 22,25 -12,7 11,7 -16,8l29 -8c8,8 13,50 11,58 -34,8 28,-3 -13,-1 -25,1 5,-6 -13,2 1,1 3,2 5,3 44,30 13,-1 19,14 0,1 -2,3 -2,3 -21,17 -24,0 -24,0l-21 -20c-1,-1 -2,-3 -3,-4 1,1 -12,3 8,1 1,0 14,-3 16,-3 -1,-2 -3,-4 -4,-5l-6 -9c-1,-3 -1,-3 -2,-5l-8 0c-31,5 13,8 -24,10 0,0 8,20 0,-5 -1,-1 -5,-10 -6,-11l-9 10c-25,28 -2,13 -22,19 -44,15 -43,20 -55,9l-7 28c-25,-20 -25,-1 -25,0 -27,39 -3,27 -3,27 28,-27 -31,23 21,-11l11 -9c13,-9 1,-7 14,-5l9 5c2,-2 4,2 6,4 -21,0 -17,-2 -32,6l-32 19c-13,10 -10,16 -46,24l27 -33 -46 17c-18,16 5,8 -26,22l-5 -21c-2,-5 -4,5 -8,-17 -2,1 -13,4 -14,4l-17 12c7,-52 -12,-13 0,-60l-14 8c-22,4 -24,-9 -28,-14 15,-5 -15,12 11,-17l15 -22c18,4 14,11 22,0 -19,-13 -14,7 -23,-18 0,-1 0,-14 -1,-15 -2,-11 14,-1 -4,-6l11 -27c1,-1 9,-8 9,-8l16 2c-4,-41 2,-5 8,-27 0,0 1,-2 1,-2 0,-14 5,-3 -7,-12 0,0 -3,17 -27,17 0,2 2,4 2,5l-2 3c-30,43 -2,56 -33,57 -42,2 -7,2 -17,-6l-30 3c-1,0 -3,1 -4,1 -15,5 21,-12 -13,4 4,-25 3,-17 14,-43l-11 27 -35 -18c9,20 -2,-2 8,13l4 7c5,9 3,-6 7,15 -11,-16 2,-13 -22,-15 1,2 20,7 -11,26l-26 -31c-1,-1 -2,-1 -3,-2l-28 -11c12,-3 7,-1 8,-14l2 -23 12 3c10,6 3,5 6,7 -2,-21 -20,-12 -2,-56l12 -19c21,8 5,1 14,11l-1 3c14,0 10,-3 4,-12 -11,-17 2,5 -18,-12l11 -9c0,-1 2,-2 3,-2 29,-11 -6,-2 12,0l-2 0c1,-2 3,-4 4,-5 1,-1 2,-3 3,-5 23,-30 2,18 8,-10 0,-2 1,-2 2,-3 -13,-2 -10,0 -18,-5 -25,-16 -1,4 -3,-7 -10,21 6,8 -28,15 5,-24 12,-34 14,-46l8 -26 -26 0c0,46 -32,117 -52,162 -12,28 0,1 -8,14l-17 60c13,-7 18,-17 31,-16 14,1 19,7 27,23 -20,38 -19,16 -29,37 -16,35 9,23 28,21l-14 -7c10,-6 -12,-7 27,-2 -1,-2 -3,-7 -4,-6 -1,1 -3,-3 -4,-5l-5 -16c1,0 3,-2 3,-1l21 7c4,21 6,18 19,36 6,7 6,7 11,15 20,28 23,17 41,33 21,18 7,13 3,39 24,-3 24,-6 42,-14l2 11c2,3 7,7 11,10l29 21c1,0 2,2 3,2 22,18 31,21 60,7l-6 15c-1,0 -1,2 -1,3l1 6c33,5 11,-3 44,-8 6,-12 -1,-28 31,-39l56 -29c1,-1 2,-1 3,-1 1,0 4,-1 5,-2l37 -17c27,-12 12,-3 18,0 11,5 -11,10 12,3 23,-7 3,7 20,-14 -22,17 6,8 16,6 37,-11 13,11 63,-3 0,0 2,-1 2,-1 19,-4 -15,-6 6,1 19,5 15,13 18,21 46,-10 50,5 55,7l39 6z"/>
   <path class="fil1" d="M2289 3141c0,1 0,3 0,3l-2 11c-7,15 5,0 -12,15 14,-41 12,-76 13,-117 1,-47 21,-59 7,-108l-22 236c0,0 0,70 -1,83l6 2c11,5 11,-16 8,9 -5,35 0,-1 -17,11 40,24 15,7 36,7 7,12 5,9 18,17l101 37c0,0 9,8 16,12 15,10 -5,4 21,8 15,-12 12,20 12,-14 15,16 41,-26 50,16l23 -15c1,0 2,0 3,0 1,0 3,0 4,0 8,-1 24,-2 18,-13 -11,-20 6,-8 -11,-10 -18,-2 16,4 -18,3 4,-55 10,-111 15,-164l19 -138c-2,-19 -1,-11 -9,-21 -9,11 -3,22 -20,29 -3,1 -20,3 -25,4 3,-3 19,-109 7,-129 -14,18 -17,65 -20,87 -3,28 -1,50 -24,60 -6,-24 14,-123 12,-155l-7 -8c-1,-1 -3,-2 -4,-3 -18,-14 21,6 -8,-3 -6,20 5,16 5,51 -1,20 -3,40 -4,61 -2,42 -9,81 -43,79l21 -178c-22,17 -8,-13 -20,27l-25 174c6,23 -18,-8 6,8l31 -18c1,-1 5,-3 6,-3 9,-3 10,-3 15,-2 0,1 0,3 0,3l-8 98c-11,72 10,93 -16,93 -14,-21 0,0 -20,-11 -21,-13 3,9 -8,-9l-16 -5c-11,5 -3,4 -6,-2 -18,-3 -11,5 -11,-28 -2,1 -31,28 -11,19 -22,-8 -14,-5 -25,-24l-15 7c-17,4 -13,-9 -13,-9l2 -23c6,-37 9,-28 -10,-36 10,7 21,-12 21,-12 10,-9 -1,-2 13,-9l8 -3c27,-13 39,-6 43,-27l-2 -10c0,0 -6,0 -7,0l-24 6c-1,1 -2,1 -3,2l-14 7c0,0 -1,2 -2,2 -5,5 -3,13 -23,11l7 -55 -13 5c-3,-44 7,-54 7,-99 -19,16 -9,1 -17,25l-18 133z"/>
   <path class="fil1" d="M2362 517c38,-32 34,-28 36,-21l-7 22c18,2 13,0 18,-1l10 -3c5,-2 18,-9 18,-10l11 -18c0,0 1,-1 1,-2 11,-15 -25,6 5,-7 7,4 34,0 31,-24 -2,-11 -13,6 1,-7l9 -5c46,-21 1,9 28,-18l6 12c4,8 -3,11 2,-1 6,8 -7,2 18,-17 35,-26 -11,11 10,-7l14 -14c16,10 14,15 29,36 -25,-5 -33,-16 -51,-8l8 26c1,0 2,3 3,5 27,-8 17,-7 31,-4 22,5 18,-2 40,1l15 23c19,18 26,1 50,33 1,2 2,3 3,4l16 22c1,1 2,2 3,2 7,10 -6,-7 4,6 23,30 26,21 33,30 6,8 -7,-7 4,10 16,25 14,-5 30,40l18 -5c2,25 -4,37 23,27 -3,34 -6,27 -10,34l-80 171 -20 -30c0,16 0,37 3,52l5 20c-3,14 5,-3 -6,8l-8 4c-13,-20 -7,-30 -9,-53 -3,-25 -8,-8 -10,-85 1,0 3,0 4,-1 26,-4 22,-3 29,-15 -16,-23 1,-3 -12,-6 0,0 -1,1 -2,0 0,-1 -1,0 -3,0l3 -35c30,1 17,6 28,-12l-22 10c-15,9 -4,-2 -17,19 -9,-17 2,1 -6,-24 -5,-16 12,-16 -9,-8l4 28c-2,-1 -5,-2 -7,-3 -2,-1 -5,-2 -6,-2 -2,-1 -4,-2 -5,-2 -5,-2 -2,-12 -2,-1 -14,1 14,-10 11,29 0,0 0,2 0,2l3 41c0,2 0,3 0,5l5 56c5,26 9,41 11,68 14,13 -9,25 15,33 -7,18 6,-4 -7,7 -1,1 -5,5 -7,6 -1,1 -3,2 -4,3 -1,2 -3,3 -5,4 20,4 16,-2 25,5l14 19c-5,13 -6,10 -14,18l-8 8c4,3 9,11 10,12l26 23c8,10 -3,4 11,11l-14 23c0,0 0,2 0,2l6 11c1,0 2,2 3,2l10 9c5,5 3,8 -1,12l24 63c3,12 -3,-3 4,15l27 56 -19 6c13,7 42,8 42,84l5 -9c4,-8 2,-5 5,-8l6 -1c-2,-1 -7,-8 -7,-9l0 -8c0,-2 1,-4 1,-5 0,-2 1,-4 2,-5 9,3 14,2 21,10 13,14 2,-1 3,9l-1 5c0,1 0,2 0,3 1,13 19,26 31,34l75 38c-30,21 30,6 -12,4l-29 -10c17,28 22,6 8,31 9,-13 -2,-7 13,-7l19 4c16,3 33,-2 49,14 7,-8 7,-9 16,-11 -1,0 -7,-9 -2,4 0,0 1,2 2,3l44 -7c-1,-1 -4,-4 -4,-3 -1,2 -4,-1 -5,-2l-25 -7c-16,-8 -19,-12 -39,-20l-51 -17c-28,-4 -1,-3 -25,-4 25,-22 31,-8 70,2l70 26c27,20 4,5 26,5 -10,-14 -2,-5 -15,-14l-120 -43c-23,0 -59,-27 -79,-54l-14 -15c-3,-3 -9,-10 -10,-16 -4,-13 -7,-5 4,-10 -30,-2 -16,0 -30,-20 -17,-25 -21,-26 -32,-63 -10,-31 -3,-26 0,-30l-23 -23c-4,-12 -1,-2 0,-6 0,-1 0,-2 0,-2 0,-1 1,-2 0,-3l0 -6c-5,-17 -2,-2 -5,-13 -4,-11 2,7 -3,-12 -10,-40 -34,-113 -32,-161 16,-6 -6,-12 6,3l5 9c0,0 1,2 1,4l-3 -24c-3,-7 -13,13 -3,-17l45 -103c7,-22 9,16 6,-27 4,22 -2,8 15,23 -2,-25 1,-35 11,-56 0,-1 1,-3 1,-4 1,-1 2,-3 2,-4 1,-1 1,-2 2,-3l6 -20c12,-30 23,-49 31,-76 -40,2 -17,22 -40,8 -24,-14 8,17 -10,-10 -7,-12 -12,-18 -20,-28l-9 -13c0,0 -1,-2 -1,-2l3 -7c-1,-1 -4,-4 -4,-3l-38 -31c-7,-4 -3,0 -11,-6 -13,-10 -5,-5 -14,-19 -39,-58 -123,-97 -130,-102 -17,-13 -2,-11 -2,-15 5,-39 -50,-14 -69,11 -3,-12 1,-5 -6,-16 -28,33 -1,5 -25,23 -52,38 4,6 -51,28 -19,9 -24,17 -42,27l-51 29c5,16 2,8 8,24z"/>
   <path class="fil1" d="M371 1919c-9,23 7,9 -17,16 -10,3 -15,0 -21,0 0,9 -3,12 -8,19 -21,33 -2,37 9,33 1,0 2,-1 3,-2l20 -20c3,25 -6,-16 6,15 1,2 1,3 2,4l6 17c6,12 0,2 4,7 11,13 13,9 13,9 0,1 -2,1 -2,2 0,1 -2,1 -3,1 -17,14 -4,1 -10,16 -4,10 -11,11 -6,25 4,11 -2,3 10,12 1,-1 3,-5 3,-4 1,1 3,-2 3,-3l19 -21 28 89c10,29 30,54 27,82 -5,36 6,26 16,64l-21 41c-1,1 -2,3 -3,5 19,1 19,6 34,2 -4,7 -2,-1 -5,15l0 33c0,11 -15,23 -24,45 3,1 18,8 20,9 1,0 3,1 4,1 2,0 4,0 5,0l17 -29c4,-26 -1,16 3,-13 2,-16 -8,-13 2,-27 4,-7 7,6 8,5 0,-2 1,2 2,3 5,-8 12,-9 22,-9l12 22c1,-1 3,3 4,4 13,-9 8,1 10,-20 2,-22 -3,-43 -11,-66 23,3 3,4 25,-1l-7 13c0,1 -1,2 -1,3l6 20c8,13 11,6 15,1 8,-10 -1,-30 4,-43 13,-35 -3,-43 -1,-76l-17 -6c-3,0 -6,1 -12,0 -26,-5 6,7 -9,-4 -33,-24 21,10 -9,-10l-10 10c0,0 -1,0 -2,0l-12 -11c16,-19 38,-8 37,-51 -2,0 -3,1 -4,1 -1,0 -3,1 -4,1 0,0 -2,1 -3,1l-61 10c-6,10 -4,11 -2,21l2 14c-25,-22 -11,-13 -21,-42 -7,-22 -11,-33 -12,-57 2,1 10,6 11,7l19 9 -5 33c1,0 11,-2 13,-2 2,-1 3,-1 6,-2l17 -7c0,-30 -6,14 -3,-14 2,-28 -14,-9 18,-19l-15 -22c6,0 10,13 25,17 4,-41 -2,-9 -3,-37l-41 -11c0,0 1,-2 2,-3 0,-1 1,-2 2,-3l17 -17c11,-13 -4,-10 15,-19l-56 -15c7,4 -6,-30 6,11l-43 -3c-2,-10 1,12 2,-8 2,-23 -9,-17 -9,-17 15,-10 4,2 11,-16 -1,-2 -2,-4 -2,-5 -36,-70 -28,-40 -19,-80 4,-23 12,22 0,-9l-9 -5c31,5 18,8 36,-10 -1,-1 -1,-2 -2,-2l-16 -10c-1,-1 -3,0 -4,-1 14,-6 8,-6 13,-10l45 -42c0,-2 2,-2 3,-3l-17 -4c-1,0 -5,0 -6,0 -1,0 -2,1 -3,1l-30 9c2,1 3,2 5,3l22 15c-9,1 -23,4 -31,9l-20 18c-1,0 -3,1 -4,1 0,1 -2,1 -3,2 0,0 -2,0 -2,1 -29,14 -30,20 -33,52 10,4 -1,-1 10,6l13 9c-41,-14 -12,-3 -22,5l4 12z"/>
   <path class="fil1" d="M1822 2994c-19,19 -20,29 -32,51l-16 25 1 14c-18,13 -10,3 -14,19 -1,0 -1,2 -1,3 -3,6 2,10 -20,13 -26,3 9,-1 -10,0l-34 2c-15,1 -93,9 -98,-8 0,-2 -2,-2 -3,-3 -12,19 5,6 -18,13 -16,5 1,0 -11,2 0,0 -8,0 -9,1l-49 6c8,11 -1,10 28,9 23,0 30,2 44,11 -36,6 2,1 -26,2 -1,0 -13,1 -13,1 -61,6 -68,30 -93,-21l-17 -8c-21,-2 3,6 -12,-3 6,-7 -12,-7 17,-4l-31 -33c-1,-1 -1,-3 -2,-4 0,-1 -2,-12 -3,-14 -10,-46 -7,-9 -22,-51 -6,-19 -4,-12 -12,-18 -25,-18 3,18 -10,-36l-4 -25c0,-1 1,-2 1,-5 0,-3 0,-3 0,-5l8 2c15,7 14,16 16,24 4,-13 2,-9 32,-7 2,0 5,2 5,0 1,-2 4,0 6,0 -1,-1 -2,-3 -3,-3l-15 -10c8,-13 -15,-12 10,-11 -16,4 -6,-1 -26,-4l12 -14c0,0 3,-19 5,-27 -9,0 -4,1 -15,1l-12 -1c16,-69 36,-2 24,-35 32,13 8,5 18,1 0,0 -6,-35 -27,-23l-23 23c-16,13 1,-5 -9,18l-10 1c-2,0 -4,1 -6,1 -10,2 -3,0 -14,3 2,1 3,2 4,3l11 7c1,1 13,5 13,5 24,9 8,-4 29,18l-38 17c-3,-44 -4,-18 -13,-25l-31 -14c-5,6 -3,13 -5,18 1,1 3,1 4,4l8 9c1,1 2,2 3,3 20,27 13,100 22,115 13,21 2,0 9,4 8,5 3,-8 3,6 1,14 1,7 12,17l36 85c21,40 19,21 35,46 20,-19 31,-4 64,0 80,9 146,12 226,-4l-8 5c-25,23 9,-16 -8,6l-9 22c30,-9 46,-44 94,-27 -3,16 -4,16 -11,28l-9 30c9,-1 3,4 10,-7 12,-17 5,-40 30,-52 -1,-4 -5,-15 -5,-16 -2,-8 -11,-4 1,-6 13,-17 22,-1 27,-40 2,-9 3,-12 4,-14l34 -92c3,-10 10,-11 25,-56 28,-81 25,-9 46,-60l-26 9c8,-42 11,-59 33,-66 -1,-1 -5,-8 -5,-9 0,0 0,-2 0,-2 0,-1 0,-3 0,-3 1,-12 14,-14 8,-26l17 2c4,1 1,13 2,-1 0,0 19,0 -4,-20l-32 -8c0,0 -2,1 -2,1l-30 19c-6,3 0,-16 -3,4 0,0 -3,23 9,37l-14 0c-3,22 -7,23 5,39 -20,6 1,-11 -14,0 8,25 -12,27 -14,30 -5,10 0,-15 -2,10 -3,73 10,17 -11,58l-13 38c-5,13 -11,31 -14,40l-25 53c-1,2 -1,3 -2,4 -10,26 -12,16 -21,56 -9,-6 -5,-3 -13,-11l-8 -13c11,-22 -4,4 20,-17l-7 -7c0,0 -3,-9 -3,-15l15 -6c6,-3 5,0 14,-9l21 -48c0,-1 0,-3 0,-4 1,-32 9,-16 -1,-43z"/>
   <path class="fil2" d="M2893 2950c1,8 11,5 -4,24 -13,16 0,2 -21,9 -21,8 -20,9 -22,29 -6,44 -25,70 -28,148l-16 171 35 -2c1,0 2,1 3,1 11,2 -10,6 19,5l15 -129c1,-15 4,-41 6,-63 5,-62 -16,-47 24,-61 8,30 -7,44 -13,75l9 -5c20,-15 30,-35 51,-50 16,-11 51,-37 61,-52l-19 -18c-1,0 -2,-1 -3,-2 -1,-1 -2,-1 -3,-2l-12 -12c-16,-18 -11,-16 -36,-12 1,-5 4,-13 5,-15 1,-10 8,6 -1,-9 -11,-17 -5,15 -17,-30l55 10c16,-10 2,-7 27,-10l-33 38c3,5 9,14 13,16 12,5 15,-3 15,-3 0,0 1,-1 1,-2l51 -41c1,0 2,-1 3,-2l44 -40c1,0 2,-1 3,-2l77 -56c5,-4 8,-18 22,-31 7,-6 21,-4 65,-31 23,-15 21,-4 40,-41l-145 65 -41 37c0,0 -1,1 -2,2l-41 31c-20,-25 -3,0 -3,-27 -37,2 -29,22 -100,51 -17,6 -28,2 -36,6 0,1 -1,1 -1,1l-10 18c-11,23 10,-26 -5,11 0,1 -2,6 -3,7 0,2 -1,4 -2,5 0,1 -1,3 -1,4l-26 -16z"/>
   <path class="fil1" d="M596 431c-16,8 -6,3 -17,13l-41 45 10 7c3,5 7,-3 -14,0l-31 24c-18,23 22,-12 -10,9 -35,23 -35,36 -59,57 -3,2 -9,3 -15,17l-2 10c-1,1 -1,2 -1,3l-1 5c-1,1 -4,6 -6,6 -10,-26 -2,-26 -19,-41 -14,16 -6,26 10,69l15 31c11,24 14,28 22,55 11,39 14,23 26,68l11 29c4,9 5,9 7,14 15,34 8,88 -5,121l-22 51c26,-1 3,-3 28,2l8 -21c-9,-5 2,15 -5,-4l29 -57c24,11 12,2 19,17l2 9c6,18 -2,2 6,16 9,14 9,9 17,12 22,8 2,3 13,1l30 -7c-13,-2 -24,-20 -29,-32 8,53 -28,31 -27,6l3 -14c0,-2 1,-4 1,-5 0,-2 1,-4 1,-5 1,-1 2,-1 2,-1 0,1 2,0 2,0 0,0 1,-1 1,-1 3,-8 -4,-10 -4,-16 0,33 -1,14 -7,15 -11,1 -5,1 -9,-3 -16,-16 -5,-12 -4,-34 0,-1 1,-3 1,-4 0,-1 0,-3 0,-3 -1,-2 -5,-18 -12,-14 1,-2 2,-5 2,-5l6 -12c1,-1 1,-2 2,-3l9 -39c1,-2 3,-7 3,-8 3,-6 -10,-6 22,-21l12 31c7,-15 -4,-12 16,-24 1,0 2,-1 3,-2l0 -33c40,-4 20,-4 28,2 6,5 3,12 2,4 30,-22 9,7 6,-10 -3,-14 -32,-10 -39,-12 -11,-3 -1,6 -5,-9 0,0 0,-2 0,-2l-38 22c1,1 2,2 3,3 5,8 10,-5 10,18 -2,42 -4,-6 -17,27 -16,-7 -28,-21 -36,-37l11 -11c1,-1 1,-2 2,-3l21 -24c-16,-7 -9,-2 -19,-2l-25 10c-1,1 -3,2 -4,3 5,-16 1,-8 1,-9 0,0 -1,-2 -1,-3l20 -21c0,0 2,0 3,0 1,-1 2,-1 3,-1l30 -48 -36 7c0,2 4,10 3,13 -1,2 -4,13 -19,10l-7 -5c0,-1 3,-38 36,-59l19 -25c1,-1 8,-1 21,-20 -2,0 -13,2 -14,1 -1,0 -3,0 -3,-1 -13,-6 -6,3 -14,-14l17 -3c18,1 7,7 28,14 -1,-17 -1,-11 -13,-17l-22 -6c1,-1 3,-4 3,-3l14 -16c16,-19 -17,4 15,-15 24,-15 16,-20 39,-12 -1,-17 -1,-18 -1,-30 1,0 3,-1 3,0l15 -3c1,0 2,-1 2,-1l5 -2c1,0 3,-1 5,-2 -1,0 -3,-2 -4,-1l-15 -3c0,-1 -2,-1 -3,-1 -1,0 -2,0 -3,0 0,0 -2,0 -3,0 0,0 -2,0 -2,0 23,-18 5,-20 41,-15l18 -28c1,-1 3,-2 4,-3 -48,12 -51,-2 -88,34 -9,9 -11,13 -23,22 9,-20 17,-27 45,-33 -7,-13 -5,-9 -18,-14z"/>
   <path class="fil1" d="M2963 2392l15 0 -13 18c0,34 0,8 9,10 23,2 9,-18 49,-7 -7,-21 -12,-22 11,-32l8 -2c10,0 3,-9 2,6 -1,16 -1,-6 -12,13 -30,54 -15,14 -29,39 2,1 4,1 5,1 15,3 13,3 17,-7l4 37c-46,35 -56,5 -67,47 30,-8 3,-2 15,-7 1,0 6,-3 8,-3 10,-2 10,3 11,9 -1,-2 12,-6 -9,0l-47 25 -9 22c0,2 0,5 -1,7 0,5 -1,-11 0,5l1 4c6,25 -4,0 2,3 17,-7 -6,3 13,-6l12 -5c2,-1 4,-2 6,-3 -6,20 -2,21 -15,28 24,-6 -6,-6 37,-14 0,3 -2,3 -3,7 0,3 -2,4 -2,6l-6 22c0,1 0,3 0,4 26,6 33,-13 44,-27l14 -22c1,-2 2,-4 3,-6 -2,1 -4,0 -5,3 -4,8 -28,16 -39,19 1,-2 3,-6 4,-5 1,1 3,-2 7,-9 6,-10 5,1 6,-19 16,4 -10,8 22,2 20,-4 5,7 16,-9 12,-19 -1,-23 -3,-43 31,-5 -2,-1 25,-9l-6 -8c-30,-36 2,-38 26,-57l15 -14c1,-1 4,3 16,-11 -1,0 -2,0 -2,1l-65 26c10,-14 67,-53 67,-53 24,-11 41,-17 60,-35 11,-10 30,-12 34,-15l26 -14c21,-5 24,-4 33,-21 1,-2 2,-4 3,-5 1,-2 2,-4 3,-6l-45 6 47 -46 -12 -22 -9 -2 -28 12c-17,10 -13,6 -31,6 -25,-1 -7,-3 -29,6 -1,0 -2,1 -3,2 -2,0 -3,1 -4,1 -2,0 -3,1 -4,1l-68 24c-14,20 -5,-16 2,14l2 9c-2,0 -5,-2 -6,0l-45 6c-9,1 -17,2 -19,3l-12 17c-17,-27 -72,15 -83,22l15 13c1,0 2,3 2,4l-5 27c0,1 -1,3 -2,5l21 2z"/>
   <path class="fil1" d="M1420 986c27,4 83,-18 109,-25 17,-5 12,-5 27,-4l94 5c1,0 3,1 4,1 1,0 3,0 4,1 -23,12 -72,9 -87,13 -11,3 -17,3 -30,20 50,-10 91,-13 141,-23 23,-5 45,-2 65,4l64 19c4,0 32,2 51,15 54,36 20,4 56,36 52,48 57,29 45,69l25 -13c-9,16 -9,5 0,18 5,-6 10,-9 17,-14 -6,-17 -2,-6 -11,-24l12 12c1,0 3,1 4,2 15,-20 45,-27 64,-70 1,1 2,1 3,3l57 62c14,16 25,21 24,53l19 6c10,6 20,15 23,27 -30,30 -92,86 -98,117 27,-3 25,-11 39,-35l22 30c17,26 12,10 1,44 -17,51 -9,17 5,31 7,-22 6,-18 18,-34l22 75 22 0c4,30 -5,11 22,20 -8,-26 -4,-44 -21,-61 8,-8 -10,-17 9,-2 9,7 5,-4 3,12 2,-27 -3,-11 9,-22l-23 2c-1,0 -3,0 -5,-1 -3,-35 -14,-36 -17,-38 3,-3 23,1 16,-43l-1 -7c0,-4 0,-7 1,-11 6,-1 -5,-14 4,4l7 16c-1,-27 3,-33 11,-50l18 -36c-23,-19 0,-7 -13,-5 -11,2 -5,8 -15,20l-5 -14c0,-2 -1,-3 0,-5l20 -41c-40,0 -11,2 -22,6 -1,1 5,26 -7,4 0,-1 -1,2 -2,2 -4,-5 -9,-10 -11,-13 -1,-1 -2,-2 -3,-3 0,-1 -1,-3 -1,-4 -6,-9 4,7 -4,-7l-16 -21c-19,-20 -7,-15 -25,-40l-7 -8 -19 -23c0,-1 -1,-3 -2,-4l-6 -22c-1,0 -16,3 -16,3 -13,4 -3,0 -11,5l-31 -7 -22 -13c-7,9 -6,8 -17,16 -1,1 -2,1 -3,2 -1,1 -3,1 -4,2 -16,11 -28,22 -51,27 -19,-19 -14,-19 -32,-29l-27 -18c-1,0 -3,-1 -4,-2 -16,-10 -40,-8 -68,-13 -17,-3 -43,-14 -44,-14 -1,-1 -2,-1 -2,-1l-35 -8c-18,-5 -30,-5 -49,-8l-72 -19c-1,-1 -3,-1 -4,-1 -6,-2 -10,-3 -15,-5 -2,0 -5,1 -6,-2 -1,-2 -3,-1 -5,-2 11,-4 1,8 -17,10l-34 -5c-19,1 -5,12 -40,15 -25,2 -2,1 -23,10l-46 9c-2,0 -7,1 -8,2l-20 20z"/>
   <path class="fil2" d="M2748 3783c50,0 30,34 75,57 12,-16 21,-26 36,-39 -7,22 -21,17 -34,43l23 22c30,37 51,34 59,55 6,15 76,76 96,94l35 29c26,19 48,32 78,20 -1,-4 -6,-15 -10,-20l-137 -158c-11,-14 -37,-20 -57,-57 -11,-21 -12,-17 -33,-34l-69 -54c-59,-49 -42,-31 -28,-52 -23,-3 -32,-25 -63,-58 -23,-24 -36,-48 -58,-69 -9,10 -22,54 -22,69 -1,20 73,90 83,102 8,9 13,18 22,27 14,14 12,5 4,23z"/>
   <path class="fil1" d="M2870 2346l39 -9 -1 65c-1,26 -7,0 -6,22 0,37 7,14 -10,24 -5,37 -1,5 3,14 10,24 -8,17 -14,55 -3,23 1,21 -5,41 -8,23 -11,23 -8,51 -19,-5 -10,-3 -25,-7 6,9 11,18 15,33 -33,48 -89,76 -98,83 -2,2 -12,14 -16,17 -14,12 -47,31 -89,70l-10 6c0,0 -2,0 -3,1 0,0 -2,0 -3,0 -1,1 -3,1 -4,1l-14 8c-16,10 -15,25 -4,37 15,1 22,3 32,-8 14,-16 9,14 -4,-15 -5,-12 29,-28 43,-29 -18,20 -12,-3 -27,33 22,-9 72,-39 84,-52l106 -106c20,-22 39,-25 37,-54 -4,-45 0,-35 12,-42 12,38 4,41 -5,53 6,-2 27,-14 35,-19l-9 -19c6,-17 0,-9 12,-20 -6,-3 4,22 -2,-3l-1 -4c-1,-16 0,0 0,-5 1,-2 1,-5 1,-7l9 -22c-5,-10 -6,-18 2,-32l20 -18c19,-15 15,-16 36,-25 -21,-14 -7,6 -17,-12 16,-5 3,5 18,-12l-15 -10c1,1 16,1 -13,24 -6,6 -7,8 -14,14 -1,1 -2,2 -3,3 -1,1 -3,3 -4,3 0,1 -3,5 -3,4 -1,-2 -3,2 -5,3 -3,-21 1,-22 2,-43l-1 -7c1,-2 4,-10 8,-16l-19 -6c20,-7 18,-16 31,-17l-21 -2c1,-2 2,-4 2,-5l5 -27c0,-1 -1,-4 -2,-4l-15 -13c11,-7 66,-49 83,-22l12 -17c2,-1 10,-2 19,-3l45 -6c1,-2 4,0 6,0l-2 -9c-7,-30 -16,6 -2,-14l68 -24c1,0 2,-1 4,-1 1,0 2,-1 4,-1 1,-1 2,-2 3,-2 22,-9 4,-7 29,-6 18,0 14,4 31,-6l28 -12c10,0 15,0 26,-4 13,-4 20,0 20,-16 -1,-27 16,5 -6,-9 -10,-6 2,-4 -14,-3l-28 9c-2,1 -3,2 -4,2l-93 27c-8,5 -7,8 -19,9 -6,1 -17,-2 -32,1l-49 19c-30,16 -46,19 -77,14 6,26 0,11 16,22 -22,11 -12,0 -30,6 -9,4 -31,19 -11,11 -19,0 -27,-7 -38,-11 -17,28 -16,6 -26,17l-2 8c-9,0 -16,-6 -37,12 7,16 -2,7 14,14z"/>
   <path class="fil1" d="M2860 4119l-17 6c0,7 3,5 -6,5 -10,9 -10,8 -18,14 -6,5 -8,7 -12,9l-33 19 -25 14c-3,19 4,14 -16,-5 -1,-1 -2,-2 -3,-3l-71 -90c-23,-35 -2,-13 -23,-32l-6 -5c-1,-1 -2,-2 -2,-3 -1,-1 -4,-5 -4,-7 -1,-2 -1,-3 -2,-4 -5,5 -11,10 -16,16l125 149 -15 9c-24,13 -58,39 -85,45l-4 -22c0,-1 -2,-2 -2,-3 -19,-22 -3,9 -43,-54l-37 -47c6,10 21,19 11,39 -20,-16 -4,-2 -17,-22 -16,-23 -11,-18 -30,-21l-16 -4c-26,-7 -29,-9 -41,-37 0,-1 -1,-2 -2,-4 -4,-13 -4,-6 -4,-21 17,3 13,6 29,23 2,2 4,6 5,5 1,-2 3,3 4,4 -6,-34 -5,-16 -10,-28 -1,-1 -2,-2 -2,-4l-7 -18c-20,7 -7,-4 -19,11 5,29 8,14 -17,22 4,-6 2,-5 2,-7 -4,-34 -10,-23 -35,-23 24,-7 18,8 15,-14l-7 -3c-31,-15 4,-19 -35,-8 1,2 3,2 3,4l43 64c6,13 5,14 2,27l27 6c68,59 36,24 82,89 17,23 20,9 32,31 38,69 93,45 101,47l-15 30c22,3 22,2 52,-26 5,-4 4,-4 8,-8 28,-31 50,-10 41,-41 2,1 4,0 5,2 3,7 30,-3 36,-5l20 -8c22,-12 5,2 20,-16 -32,12 -37,14 -72,21 1,-1 3,-4 3,-3 1,1 3,-2 3,-3 15,-11 44,-29 61,-32l0 -15c0,-6 8,-2 15,-11 16,-21 3,-13 2,-15 8,3 -12,5 15,2 11,-2 4,1 14,-4l22 -22c-15,-6 -16,-10 -29,-15z"/>
   <path class="fil1" d="M625 2630l-11 27c18,5 2,-5 4,6 1,1 1,14 1,15 9,25 4,5 23,18 -8,11 -4,4 -22,0l-15 22c-26,29 4,12 -11,17 4,5 6,18 28,14l14 -8c-12,47 7,8 0,60l17 -12c1,0 12,-3 14,-4 4,22 6,12 8,17l5 21c31,-14 8,-6 26,-22l46 -17 -27 33c36,-8 33,-14 46,-24l32 -19c15,-8 11,-6 32,-6 -2,-2 -4,-6 -6,-4l-9 -5c-13,-2 -1,-4 -14,5l-11 9c-52,34 7,-16 -21,11 0,0 -24,12 3,-27 0,-1 0,-20 25,0l7 -28c12,11 11,6 55,-9 20,-6 -3,9 22,-19l9 -10c1,1 5,10 6,11 8,25 0,5 0,5 37,-2 -7,-5 24,-10l8 0c10,1 1,9 9,-6 -14,-14 -16,3 -53,-21l-32 -12c-51,-14 23,17 -17,-5 17,-4 5,4 14,-6 27,-28 -3,-28 -3,-28l-1 19c-1,1 -1,2 -1,3 0,1 -1,3 -1,4l-11 18c0,0 0,2 0,2l-2 12c0,-1 0,2 0,2 -28,4 -10,5 -25,-1 -8,-3 -10,17 -3,-4l-20 -14c-47,-40 -39,-10 -68,-3 -9,-6 -12,2 -3,-13 5,-9 2,-5 12,-8 -22,-1 -17,3 -26,-12l-13 24c-1,2 -2,3 -3,5l-5 8c-1,1 -3,5 -3,4 -1,-1 -2,2 -3,3 -2,0 -6,-3 -7,-3 0,-1 -2,-2 -3,-2 -1,0 -5,-2 -6,-2 -17,-6 -9,3 -17,-15 -5,-13 -4,-4 -17,-16z"/>
   <path class="fil1" d="M333 1935c6,0 11,3 21,0 24,-7 8,7 17,-16 -29,-11 -7,4 -32,-23l-53 -14c-23,-16 -5,-12 -30,-14 -3,-1 -7,-1 -11,-2l-9 -2c-1,0 -3,-1 -4,-1 2,-1 4,-4 4,-3 0,1 16,-7 17,-32 -10,5 3,-3 -8,8l-27 7c-27,-6 -16,7 -29,-2 -1,0 -2,-2 -3,-2l-7 -12c-14,17 4,13 -13,13l-29 -9c-4,-52 66,-54 -14,-49 0,1 1,2 1,3l0 10c0,0 0,2 -1,2l17 33c-25,-8 -22,-7 -43,-9 -1,-13 0,-22 -1,-32l-2 -12c0,-1 -1,-3 -1,-4 0,-14 -6,-3 4,-13 12,-13 -1,-2 13,-4l13 -19c-3,-27 -15,2 1,-6 -9,-12 3,-11 -39,-8l-23 -3c7,-67 0,-67 1,-112 0,-31 14,-16 21,-32 1,-1 0,-25 22,-31l13 -24c-28,-20 -32,-8 -44,2 1,-32 -2,-29 10,-34 40,-20 25,-25 55,-41 0,-1 6,-3 11,-6l4 17c17,-21 -4,-11 18,-14 47,-6 -9,14 18,0 21,-12 23,-16 58,-20 9,-2 8,-1 15,-2l20 -4c26,-5 47,-14 65,-40l-25 -6c-1,1 -3,1 -4,2 -28,9 6,12 -23,8l-23 14c-10,5 7,-3 -12,4 -22,8 -1,1 -18,8 -17,6 -39,15 -56,5 32,-10 15,-10 35,-13 34,-5 31,-15 31,-28 -13,5 -67,25 -76,38l-5 11c1,-12 8,-7 -12,-11 -27,20 -15,9 -47,24 -50,23 -13,-2 -23,34 -1,-1 -2,-4 -3,-3 -8,14 4,-4 -20,-17 -9,14 -14,24 -12,40l1 36c-6,-13 2,-14 -14,-30 5,74 23,9 -1,95l-3 8c0,1 -1,7 0,9 0,1 0,2 0,3 1,0 1,2 2,3l3 6c0,1 1,2 1,4l4 118c12,86 7,71 30,74 -11,4 -41,0 -7,22 0,0 36,13 43,14 2,1 3,1 5,2l171 54c2,1 3,1 4,2 2,0 3,0 4,1 21,7 22,7 34,25z"/>
   <path class="fil1" d="M2519 1732c-13,5 -16,8 -35,13 2,-1 3,-6 4,-5l6 -9c1,-2 8,-11 8,-12 13,-23 -5,25 3,-14 1,-1 1,-3 1,-4l28 -55c2,0 4,0 4,2l12 8c1,1 3,2 4,3 1,0 2,2 4,2 -1,-9 -6,-6 6,-11 20,-9 11,-4 18,2 -6,-37 -9,-19 13,-31 0,0 35,-8 12,28 -1,1 -2,2 -3,3 -30,36 6,-24 -9,8 15,4 6,9 21,17 10,6 4,-5 26,12 1,1 3,3 4,3 -17,1 -52,-3 -58,-8 1,17 -6,0 8,7l17 6c0,2 -1,2 -2,4l-16 41c5,1 14,-6 35,-1 -5,-38 4,3 -5,-19l-7 -21c25,5 6,-3 20,18 1,2 2,3 2,5 1,2 2,4 3,6 -3,-40 -5,-11 27,-49 7,-10 3,-3 5,-8 23,-42 -21,18 5,-12l32 -28c6,-2 10,-1 6,4 1,-26 -3,-3 15,-9 14,-10 1,4 9,-13 13,-32 -6,-32 -26,-34 2,15 11,11 7,26 -10,3 -4,-1 -12,0 -1,0 -4,1 -6,1l-16 18c-25,-19 2,-18 -30,-11 7,-15 7,-16 16,-27l-18 -6c1,-2 3,-3 3,-4 5,-7 13,-15 6,-29 -20,-5 -20,-3 -23,20l-14 -12c-7,-5 -7,-5 -18,-8 11,32 -7,8 -10,71 -7,-2 -19,-11 -35,-7 -1,0 -3,0 -3,1 -11,4 -5,1 -7,5l-5 23c-25,-20 -26,-35 -26,-38l37 -126c-1,2 -2,2 -2,4 0,1 -1,2 -2,3l-21 29c-1,0 -7,-1 -9,-2 -6,59 -4,36 -17,80 -3,10 -4,-3 -1,10 3,9 1,3 11,13 -2,1 -4,0 -5,2 -6,23 -4,4 -11,3l-13 46c-5,12 -6,41 -35,43 -11,-19 8,-6 -10,-17l21 -17c-14,-16 -6,-3 -8,-22l9 -3c19,-11 15,-6 23,-30 -10,-5 -1,3 -13,-14l-5 8c0,1 -2,2 -2,3 -1,1 -3,2 -3,3 -1,2 -5,5 -6,6l-4 6c-8,15 14,6 -31,21 0,-1 1,-5 1,-4l4 -13c10,-16 -18,-9 18,-10 -8,-16 -8,-16 -4,-25 8,-19 6,7 2,-7l-9 -17c0,-1 -2,-3 -2,-5 28,-3 -5,-11 26,-1 -16,-23 -22,-7 4,-34l-22 -22c10,-3 16,-3 25,-6 -16,-17 -3,-16 -15,-13 -15,3 -10,13 -10,15l-2 22c-2,10 1,23 -4,32 0,0 0,0 0,0 -1,7 -20,-5 -13,32l1 11c-1,18 -14,16 -15,36 -1,19 1,1 0,10 0,1 0,2 0,3l-6 46c-5,-4 -7,5 -8,13l3 70c16,-9 12,-1 17,-19 6,-22 -5,-17 -5,-17 18,-1 13,-6 17,13 2,5 -1,25 -2,31 11,-15 2,-14 15,-25 19,-18 14,16 20,-38l31 38c11,-29 14,-17 24,-37z"/>
   <path class="fil1" d="M106 1545c-22,6 -21,30 -22,31 -7,16 -21,1 -21,32 -1,45 6,45 -1,112l23 3c42,-3 30,-4 39,8 24,0 31,18 57,3 1,0 2,-1 3,-2l38 -12c-3,-17 -7,-14 4,-25 10,-11 10,-16 27,-25 -6,14 -19,19 -13,33 3,7 4,5 9,7 29,9 9,0 16,-2 0,-1 -1,-3 -1,-3l-2 -8c-3,-24 -6,-6 16,-30l-7 -8c-3,-4 -3,-2 -10,-17 27,2 16,-5 33,-25 -35,-3 -28,-10 -28,-10 -5,-9 4,-1 3,-15 -2,0 -4,1 -6,1l-9 4c-1,1 -3,2 -3,3 -2,1 -4,3 -5,4 -24,22 25,-3 -15,5l-7 34c-12,21 -7,30 -31,41 -1,0 -2,1 -4,1 -20,10 -11,7 -21,19 -1,1 -2,3 -3,4l-11 15c-1,-1 -2,3 -3,5 6,-22 11,-33 27,-47 -1,0 -2,9 -7,-4 -8,-19 -2,-1 1,-6 0,-1 7,0 7,-11l-2 -15c1,-1 1,-5 1,-6 3,-26 12,-9 31,-25l14 -27c0,0 0,-2 0,-2l-8 -37c-12,-13 11,-7 -15,-7 2,0 2,-16 2,4l-6 15c-14,24 -17,30 -45,41l-21 13c0,0 -2,-1 -3,-1 0,-1 -5,-4 -6,-5 1,31 22,8 -25,23l29 -49c0,-1 2,-2 2,-3l24 -27c13,14 3,21 16,24l-9 -48 24 -2c2,-28 6,-14 -12,-24 15,-4 15,-15 25,-30l-59 18c4,2 8,5 14,10l9 9c-16,10 -19,5 -31,12l-3 19c0,1 1,4 1,5 -4,14 13,5 -7,6 -10,1 -10,-3 -13,-6z"/>
   <path class="fil1" d="M2231 1438c1,20 19,111 26,132 11,37 6,39 13,70 1,3 5,-1 -1,45 -17,-24 -13,-160 -41,-172l19 192 -19 97c-1,1 -1,3 -2,4l-16 44c-13,38 -19,36 -20,54 -4,46 -18,31 -14,69 -2,48 -3,16 16,28 0,-26 8,-44 18,-67 4,-8 -1,3 5,-11 8,-16 0,1 3,-7l11 -21c1,-1 2,-2 3,-3l4 -13c-1,-1 -1,-3 -1,-4 -2,-8 -1,-8 -10,-16 50,12 27,-4 30,-15 12,-34 -4,6 4,-12l19 -39c13,-26 1,-3 17,-13 1,-4 10,-22 10,-23 48,-65 -2,-48 44,-49l16 34c1,1 2,4 4,5 1,-12 1,-30 2,-36l6 -40c0,-1 1,-2 1,-3l-1 -9c0,0 -1,-1 -2,-1 -1,-12 7,2 -6,-7 0,0 -2,-1 -3,-1 -1,-1 -3,-2 -4,-2 -26,-17 -13,-11 -12,-32 2,-17 5,-5 1,-30 -5,44 -1,-3 -14,26 -9,21 -5,49 -5,49l-10 18c-5,10 -3,13 -15,17 -2,1 -4,1 -5,1 -1,0 -3,0 -5,0 13,-22 7,-14 11,-44l-13 3c-15,4 9,18 -6,2l-21 -177c0,-24 2,-4 6,-32l-32 -27c0,28 5,25 5,44 9,-5 4,9 6,-17l-6 0c0,-34 3,-3 -16,-11z"/>
   <path class="fil1" d="M4195 3351l-13 -19c-7,-16 -4,-10 -1,-15 12,-21 34,0 56,14 10,7 -1,4 14,8 0,0 19,2 20,2 -23,-3 2,2 -10,-9 -8,-7 -19,-16 -29,-22 -24,-17 -33,-13 -37,-16 -1,-2 -2,-5 -2,-4l-10 -24c0,-1 1,-2 1,-3l-27 -132c0,-1 0,-2 0,-3 2,-69 -20,-41 16,-112l69 -172c0,-1 -1,-4 0,-5l3 -6c14,-22 11,-21 9,-50 21,6 4,2 17,7 6,3 11,6 20,8 -16,-27 -17,-12 -25,-31l-25 -5c6,18 8,24 3,33 -1,-1 -3,-1 -4,-1l-22 -10c-34,-28 21,-31 -32,-27 3,13 6,23 14,33 21,29 12,-1 22,25l-17 42c-12,10 -2,13 -14,-1 1,8 3,10 3,12 5,15 2,-8 5,16 0,0 -7,-25 -12,9l-71 164c-9,-25 -6,-16 -1,-30 -16,-21 -50,-37 -32,-72l7 -11c18,-31 44,-72 46,-107 -27,12 -20,38 -45,72 -1,0 -2,2 -2,2l-16 28c-10,13 0,8 -16,13 -21,-21 -6,-21 -22,-46 -15,18 3,39 12,53 11,17 0,13 17,27l4 15c-8,1 -8,5 -23,-6 -18,-12 -13,-19 -31,-8 47,32 61,5 85,54 11,20 16,18 2,30l10 13c0,1 -1,2 -1,3 0,0 0,1 0,2l5 9c31,36 9,10 12,42 2,16 10,24 10,42 -1,23 -5,25 12,39 -21,11 -24,-6 -12,19 9,18 7,-11 10,38 0,17 15,58 20,78l28 -5z"/>
   <path class="fil1" d="M1303 2376c46,1 4,-16 37,-15 10,1 11,6 19,9 58,19 12,-2 45,28l7 6c-10,10 -13,11 -21,21l21 1c1,0 2,0 3,-1l26 18c10,15 -7,1 11,12 17,11 21,-2 43,6l7 11c0,1 -2,2 -2,3l-6 7c57,-10 43,16 59,-3 7,-9 -3,-21 -10,-27l-31 -45c0,-1 -2,-2 -3,-3 7,-8 9,-8 14,-17l-9 -2c-38,-28 44,4 -8,-9 -15,11 1,3 -19,13 -1,-1 -1,-3 -1,-3l-10 -30c-1,-2 -1,-3 -1,-5 0,-1 -1,-3 -1,-4 -2,-11 2,-1 -2,-16 1,0 3,-2 4,-1l33 -15c-1,-18 -9,-19 0,-13 -20,0 -23,-9 -35,-4 0,1 -1,1 -1,2 -6,4 -6,-21 -3,10 -24,-9 -25,-14 -47,-3l7 -16c-40,2 1,-7 -59,-9 0,1 0,3 0,3 -3,9 11,9 -22,12l-7 0c-1,0 -2,0 -3,0 0,0 -1,1 -2,1l-16 6c-24,10 -21,48 -17,72z"/>
   <path class="fil1" d="M256 1868c25,2 7,-2 30,14l53 14c-2,-36 -14,-17 30,-63 1,-1 2,-2 3,-3 1,0 2,-2 3,-2l6 -5c1,-1 2,-1 2,-2 13,-14 9,-33 33,-46 -5,3 5,11 -11,-1 -16,-10 -10,6 -4,-10 6,-15 6,-7 14,-13 11,-8 1,17 11,-6 1,-3 4,-2 6,-3 -38,-15 -39,-18 11,-8 -27,-29 -22,-19 -5,-26l-21 6c3,-10 3,-8 5,-12l5 -9c0,-3 2,-3 2,-5 7,5 23,29 35,-3l-3 -19c-1,-3 -2,-3 -4,-5 31,7 6,8 35,-6 -1,-1 -7,-3 -8,-4 0,0 0,-2 0,-2l11 -18c-12,-4 10,-1 -11,-2 -23,-1 -3,1 -2,2 9,-26 5,-18 0,-25 -32,11 7,23 -52,30 17,12 12,0 13,23l-34 19c-5,5 -10,6 -9,19l-2 10c-9,20 -20,22 -22,23 -8,6 1,-18 -6,5 -6,18 -2,-2 1,10 1,0 4,5 5,7 -54,-5 -16,3 -26,11l-9 7c-12,4 -13,-4 -32,-1 3,2 7,-7 3,13l-9 24c0,0 -15,4 -24,34l-2 7c0,2 2,13 6,21l-27 0z"/>
   <path class="fil1" d="M1402 2934l15 10c1,0 2,2 3,3 -2,0 -5,-2 -6,0 0,2 -3,0 -5,0 -30,-2 -28,-6 -32,7 -2,-8 -1,-17 -16,-24l-8 -2c0,2 0,2 0,5 0,3 -1,4 -1,5l4 25c13,54 -15,18 10,36 8,6 6,-1 12,18 15,42 12,5 22,51 1,2 3,13 3,14 1,1 1,3 2,4l31 33 7 -26c1,-20 0,0 -1,-11 -1,-14 -3,-2 0,-8 0,1 1,2 2,2l20 17c5,-8 6,-16 16,-16l-25 -26c-12,-15 -6,-12 -18,-13l-6 1c-8,1 -3,16 -6,0 -18,-4 -11,2 -12,-30 -3,8 -11,-13 -1,13 8,17 27,12 29,12 0,0 11,-1 21,0 -12,-26 -9,1 -27,-19 -9,-9 -5,-8 -9,-17 -3,-5 -6,-11 -11,-21 33,10 59,-4 49,11l16 -11c-1,-1 -3,-2 -4,-3l-29 -23c7,1 19,-4 33,0l6 4c1,0 2,1 3,2 0,0 1,1 2,1 9,5 16,10 22,-8 4,-20 -18,-13 -33,-28 3,1 6,15 5,-6 0,-20 2,-4 -5,-14l-17 16c0,1 -1,2 -2,3 0,1 -2,6 -3,8 -9,0 -21,-2 -32,-1l-24 6z"/>
   <path class="fil1" d="M2519 1732c2,-1 5,-5 6,-6l10 -1c0,0 3,0 4,0l-16 43 14 3c19,12 -3,-3 -3,29 -18,-4 -15,-5 -30,-8l14 13c0,0 2,1 2,2 1,0 2,1 3,1l19 -1c1,0 2,-1 3,-2 20,-13 -6,-6 16,-9 7,-2 11,1 20,-5l27 -25c29,-34 -2,-21 25,-30l-3 5c-21,-5 -30,2 -35,1l16 -41c1,-2 2,-2 2,-4l-17 -6c-14,-7 -7,10 -8,-7 6,5 41,9 58,8 -1,0 -3,-2 -4,-3 -22,-17 -16,-6 -26,-12 -15,-8 -6,-13 -21,-17 15,-32 -21,28 9,-8 1,-1 2,-2 3,-3 23,-36 -12,-28 -12,-28 -22,12 -19,-6 -13,31 -7,-6 2,-11 -18,-2 -12,5 -7,2 -6,11 -2,0 -3,-2 -4,-2 -1,-1 -3,-2 -4,-3l-12 -8c0,-2 -2,-2 -4,-2l-28 55c0,1 0,3 -1,4 -8,39 10,-9 -3,14 0,1 -7,10 -8,12l-6 9c-1,-1 -2,4 -4,5 19,-5 22,-8 35,-13z"/>
   <path class="fil1" d="M1463 490c-1,2 -2,2 -3,4 -1,4 -13,12 -24,39 56,-6 5,0 39,-21 19,6 10,0 25,12 -10,9 -1,-1 -9,5 -12,10 -14,19 -35,18 10,3 11,1 16,10l3 9c1,0 3,-1 4,0l84 -11c-20,23 -18,3 -23,22 -2,6 -4,15 -4,17 10,-1 13,2 24,-12l9 -29c13,15 -6,6 19,12l12 1 -6 -7c0,-1 -2,-3 -3,-5l19 5c1,0 3,0 3,0 34,0 -21,1 16,-6 0,0 2,0 3,0 20,-2 26,7 52,2 6,-20 2,-3 -6,-25 -8,-24 -10,10 -2,-8l-26 12c-4,1 -16,7 -16,7 -26,4 19,9 -11,-1 -11,-3 -10,-6 -11,-7 2,0 8,-2 9,-3 0,0 3,-1 4,-2 20,-11 27,-19 29,-39 -21,10 -26,11 -47,0 0,1 -1,1 -1,2 0,2 -1,4 -2,4 0,1 -1,2 -1,3 0,1 -2,4 -3,5l-8 25c0,2 -1,4 -1,5 -8,2 -12,3 -21,5l-12 4c-11,2 -16,10 -44,-20 60,11 48,-21 41,-24l-35 3c-6,12 -2,12 -9,18l0 -6c-1,-1 -1,-2 -2,-3 0,-1 -1,-3 -2,-4 0,-1 -1,-3 -2,-4l17 -14c13,-5 18,-17 28,-10 22,13 -1,-8 2,8 5,21 16,17 43,14 -8,-27 7,-23 5,-49 -28,-4 -22,3 -26,11 -12,-19 2,-8 -11,-14 -1,0 -17,0 -20,0 19,17 13,8 9,18 -18,5 -24,-13 -60,18l-6 6c-26,20 -10,13 -23,0z"/>
   <path class="fil1" d="M984 484l-83 -1c-15,3 -7,22 -8,3l-91 -47c-8,-3 -15,-4 -21,-6 -19,-6 -17,-8 -34,-21 -21,11 -17,-15 -17,17 1,1 3,0 4,3l16 10c12,6 8,6 22,7l-8 57 46 0c-14,21 -5,11 -26,16 11,13 9,5 13,22 4,-15 -7,-3 4,-15 11,-11 -14,-5 23,-8l0 21c10,-9 10,15 9,-14 0,-1 -1,-2 -1,-3l-8 -10c-1,-1 -3,-2 -4,-3l33 -10c1,0 3,0 3,0l15 -6c-4,17 -1,9 -10,20 16,-2 32,4 44,14 10,10 7,-6 8,13 14,-4 11,9 2,-16 51,17 27,0 36,-10 -48,-7 17,10 -18,-9 -34,-18 -25,-11 -26,-8 16,0 71,8 79,-4 12,-20 16,14 -2,-12z"/>
   <path class="fil1" d="M2444 2414c22,-5 19,-8 30,-14l66 -29c-2,10 -8,18 -5,28 7,26 32,2 32,2 4,3 2,12 17,19 14,-7 11,-1 19,-14l7 -15c10,10 3,10 20,14 0,0 26,16 22,-12 -2,-11 0,-1 -8,-11 -1,0 -2,-1 -2,-2l-3 -4c-56,-3 -8,20 -48,19 -24,-7 2,-4 -12,-13l-23 -5c-2,0 -4,0 -5,-1 3,-4 8,-9 10,-11l28 -37c-20,6 -2,-1 6,-7 -2,-2 -3,-7 -4,-5l-39 -6c-30,4 -19,7 -26,10l-38 7c-14,3 -4,-1 -15,5 -18,8 -27,13 -26,33 5,-5 11,0 31,2 -7,17 -7,11 -10,14 -21,24 -10,6 -20,25 0,1 -3,6 -4,8z"/>
   <path class="fil1" d="M2782 1968c-5,3 -6,-18 -5,7 0,1 5,18 5,19 -24,-5 -17,-8 -34,-1 -8,19 -14,13 4,20 -45,5 5,5 -36,12l5 19c1,1 1,2 1,3 1,1 5,5 6,6l10 13c14,-3 -3,2 4,11 8,-1 1,0 9,-1l26 -3c1,-45 6,-28 44,-22 -5,-27 -12,-29 22,-45l-14 -32c-3,-16 -1,-10 -8,-17l-39 11z"/>
  </g>
 </g>
</svg>
