<?xml version="1.0" encoding="UTF-8" standalone="no"?>
<!-- Uploaded to: SVG Repo, www.svgrepo.com, Generator: SVG Repo Mixer Tools -->

<svg
   width="48"
   height="48"
   viewBox="0 0 1.44 1.44"
   version="1.1"
   id="svg32"
   sodipodi:docname="SidesetTree.svg"
   inkscape:version="1.1.2 (b8e25be833, 2022-02-05)"
   xmlns:inkscape="http://www.inkscape.org/namespaces/inkscape"
   xmlns:sodipodi="http://sodipodi.sourceforge.net/DTD/sodipodi-0.dtd"
   xmlns="http://www.w3.org/2000/svg"
   xmlns:svg="http://www.w3.org/2000/svg">
  <defs
     id="defs36" />
  <sodipodi:namedview
     id="namedview34"
     pagecolor="#ffffff"
     bordercolor="#000000"
     borderopacity="0.25"
     inkscape:showpageshadow="2"
     inkscape:pageopacity="0.0"
     inkscape:pagecheckerboard="0"
     inkscape:deskcolor="#d1d1d1"
     showgrid="true"
     inkscape:zoom="16.9375"
     inkscape:cx="23.97048"
     inkscape:cy="24.088561"
     inkscape:window-width="1920"
     inkscape:window-height="1057"
     inkscape:window-x="-1928"
     inkscape:window-y="-8"
     inkscape:window-maximized="1"
     inkscape:current-layer="svg32"
     inkscape:pageshadow="2">
    <inkscape:grid
       type="xygrid"
       id="grid1599" />
  </sodipodi:namedview>
  <title
     id="title18" />
  <rect
     style="fill:none;stroke:#000000;stroke-width:0.06;stroke-linecap:round;stroke-opacity:1;stroke-miterlimit:4;stroke-dasharray:none"
     id="rect1658"
     width="1.1691133"
     height="1.1691132"
     x="0.13544337"
     y="0.13544337" />
  <ellipse
     style="fill:#e50000;fill-opacity:1;stroke:#e50000;stroke-width:0.102111;stroke-linecap:round;stroke-opacity:1"
     id="path4002"
     cx="0.15000001"
     cy="0.15000004"
     rx="0.098944493"
     ry="0.098944537" />
  <ellipse
     style="fill:#e50000;fill-opacity:1;stroke:#e50000;stroke-width:0.102111;stroke-linecap:round;stroke-opacity:1"
     id="path4002-3"
     cx="1.2900001"
     cy="0.14999998"
     rx="0.098944597"
     ry="0.098944575" />
  <ellipse
     style="fill:#e50000;fill-opacity:1;stroke:#e50000;stroke-width:0.102111;stroke-linecap:round;stroke-opacity:1"
     id="path4002-6"
     cx="0.15000001"
     cy="1.2900001"
     rx="0.098944597"
     ry="0.098944575" />
  <ellipse
     style="fill:#e50000;fill-opacity:1;stroke:#e50000;stroke-width:0.102111;stroke-linecap:round;stroke-opacity:1"
     id="path4002-7"
     cx="1.2900001"
     cy="1.2900001"
     rx="0.098944612"
     ry="0.098944589" />
  <path
     style="fill:none;stroke:#000000;stroke-width:0.06;stroke-linecap:butt;stroke-linejoin:miter;stroke-opacity:1;stroke-miterlimit:4;stroke-dasharray:none"
     d="M 0.15,0.72 H 1.32"
     id="path934" />
  <ellipse
     style="fill:#e50000;fill-opacity:1;stroke:#e50000;stroke-width:0.102111;stroke-linecap:round;stroke-opacity:1"
     id="path4002-3-32"
     cx="1.2900001"
     cy="0.71999997"
     rx="0.098944597"
     ry="0.098944575" />
  <ellipse
     style="fill:#e50000;fill-opacity:1;stroke:#e50000;stroke-width:0.102111;stroke-linecap:round;stroke-opacity:1"
     id="path4002-3-5"
     cx="0.15000001"
     cy="0.71999997"
     rx="0.098944597"
     ry="0.098944575" />
  <path
     style="fill:none;stroke:#000000;stroke-width:0.06;stroke-linecap:butt;stroke-linejoin:miter;stroke-opacity:1;stroke-miterlimit:4;stroke-dasharray:none"
     d="M 0.72,0.15 V 1.29"
     id="path936" />
  <ellipse
     style="fill:#e50000;fill-opacity:1;stroke:#e50000;stroke-width:0.102111;stroke-linecap:round;stroke-opacity:1"
     id="path4002-3-4"
     cx="0.71999997"
     cy="1.2900001"
     rx="0.098944597"
     ry="0.098944575" />
  <ellipse
     style="fill:#e50000;fill-opacity:1;stroke:#e50000;stroke-width:0.102111;stroke-linecap:round;stroke-opacity:1"
     id="path4002-3-3"
     cx="0.72000009"
     cy="0.15000007"
     rx="0.098944597"
     ry="0.098944575" />
  <ellipse
     style="fill:#e50000;fill-opacity:1;stroke:#e50000;stroke-width:0.102111;stroke-linecap:round;stroke-opacity:1"
     id="path4002-3-9"
     cx="0.71999997"
     cy="0.71999997"
     rx="0.098944597"
     ry="0.098944575" />
  <path
     style="fill:#00ff00;fill-opacity:1;stroke:#000000;stroke-width:0.118081;stroke-opacity:1;paint-order:fill markers stroke"
     d="m 9.9778598,42.341547 c 0,-0.284348 -0.2433555,-1.08822 -0.4676282,-1.544706 C 9.0719991,39.904859 8.4763776,39.246414 7.6312439,38.719665 7.1706846,38.432611 6.186235,38.059136 5.8745387,38.053216 c -0.097417,-0.0018 -0.2105003,-0.02455 -0.2512964,-0.05045 -0.058693,-0.03726 -0.071016,-0.982663 -0.059041,-4.529652 l 0.015134,-4.48256 0.309485,-0.04454 c 0.7153421,-0.10294 1.645367,-0.534106 2.3095127,-1.070707 0.7384325,-0.596622 1.3860679,-1.585923 1.6383089,-2.502613 L 9.9381787,25.00369 h 4.5617763 4.561777 l 0.09846,0.339483 c 0.140471,0.484327 0.363358,0.994791 0.585147,1.340128 0.651316,1.014133 1.738909,1.833289 2.824046,2.127022 l 0.397403,0.107572 v 4.587008 4.587008 l -0.321437,0.07193 c -0.17679,0.03956 -0.555388,0.185897 -0.841328,0.325183 -1.440741,0.701811 -2.451786,2.028319 -2.740586,3.595692 l -0.07278,0.394985 h -4.5064 -4.5064002 z"
     id="path1141"
     transform="scale(0.03)" />
  <path
     style="fill:#00ff00;fill-opacity:1;stroke:#000000;stroke-width:0.118081;stroke-opacity:1;paint-order:fill markers stroke"
     d="M 28.936562,42.08472 C 28.713061,40.87174 28.042145,39.767104 27.085191,39.036515 26.589194,38.657844 25.812035,38.266204 25.35257,38.163381 l -0.31936,-0.07147 v -4.581748 -4.581748 l 0.385037,-0.11027 c 1.620419,-0.464067 2.89069,-1.732238 3.393612,-3.388001 l 0.129532,-0.426454 h 4.560215 4.560215 l 0.101537,0.369004 c 0.252445,0.91743 0.899223,1.904985 1.640539,2.504911 0.664072,0.537415 1.586429,0.964676 2.306069,1.068234 l 0.310698,0.04471 0.01513,4.499818 0.01513,4.499818 -0.16273,0.03162 c -0.902533,0.17536 -1.42112,0.379937 -2.118306,0.835651 -0.735318,0.480638 -1.335741,1.187083 -1.736082,2.042639 -0.178343,0.381131 -0.411663,1.19811 -0.411663,1.441454 v 0.138158 h -4.5064 -4.5064 z"
     id="path1180"
     transform="scale(0.03)" />
  <path
     style="fill:#00ff00;fill-opacity:1;stroke:#000000;stroke-width:0.118081;stroke-opacity:1;paint-order:fill markers stroke"
     d="M 28.839806,22.656827 C 28.34527,20.951733 27.067724,19.654245 25.418247,19.181855 L 25.03321,19.071586 V 14.489837 9.9080892 l 0.31936,-0.07147 c 0.459465,-0.1028237 1.236624,-0.4944639 1.732621,-0.8731346 0.956954,-0.7305887 1.62787,-1.8352247 1.851371,-3.0482052 l 0.07278,-0.3949845 h 4.5064 4.5064 v 0.1381572 c 0,0.243345 0.23332,1.0603236 0.411663,1.4414545 0.400341,0.8555558 1.000764,1.5620009 1.736082,2.0426392 0.697186,0.4557138 1.215773,0.660291 2.118306,0.8356506 l 0.16273,0.031618 -0.01513,4.499818 -0.01513,4.499818 -0.310698,0.04471 c -0.710597,0.102256 -1.626553,0.523556 -2.295428,1.055797 -0.73168,0.582215 -1.398391,1.598667 -1.65118,2.517348 l -0.101537,0.369004 h -4.561776 -4.561777 z"
     id="path1219"
     transform="scale(0.03)" />
  <path
     style="fill:#00ff00;fill-opacity:1;stroke:#000000;stroke-width:0.118081;stroke-opacity:1;paint-order:fill markers stroke"
     d="M 9.8366419,22.627306 C 9.5841973,21.709876 8.9374196,20.722321 8.1961033,20.122395 7.5320314,19.58498 6.609674,19.157719 5.8900337,19.054161 l -0.3106979,-0.04471 -0.015134,-4.48256 C 5.5522268,10.979902 5.564549,10.034503 5.6232428,9.9972395 5.6640388,9.9713395 5.7680844,9.9497405 5.854455,9.9492435 6.1272922,9.9476728 7.0985556,9.5982527 7.5132753,9.3524689 8.8273175,8.5737013 9.7687698,7.2111699 9.9531371,5.8213413 l 0.039935,-0.3010461 h 4.4987939 4.498794 l 0.07278,0.3949845 c 0.2888,1.5673738 1.299845,2.8938811 2.740586,3.595692 0.28594,0.1392868 0.664538,0.2856192 0.841328,0.325183 l 0.321437,0.071934 v 4.5817483 4.581749 l -0.398524,0.113789 c -1.368757,0.390817 -2.620277,1.491431 -3.162041,2.780771 -0.08116,0.193159 -0.191877,0.503965 -0.246031,0.690681 l -0.09846,0.339483 h -4.56178 -4.5617763 z"
     id="path1258"
     transform="scale(0.03)" />
</svg>
